<?xml version="1.0" encoding="us-ascii" standalone="no"?><svg xmlns="http://www.w3.org/2000/svg" xmlns:xlink="http://www.w3.org/1999/xlink" contentStyleType="text/css" height="631px" preserveAspectRatio="none" style="width:1103px;height:631px;background:#FFFFFF;" version="1.1" viewBox="0 0 1103 631" width="1103px" zoomAndPan="magnify"><defs/><g><!--class Restaurant--><g id="elem_Restaurant"><rect codeLine="2" fill="#F1F1F1" height="103.8633" id="Restaurant" rx="2.5" ry="2.5" style="stroke:#181818;stroke-width:0.5;" width="208" x="397" y="7"/><ellipse cx="461.75" cy="23" fill="#ADD1B2" rx="11" ry="11" style="stroke:#181818;stroke-width:1.0;"/><path d="M460.6094,23.7969 L460.6094,26.2969 L464.9375,26.2969 L464.9375,25.375 Q464.9375,24.7656 465.1719,24.5 Q465.4219,24.2344 465.7969,24.2344 Q466.1719,24.2344 466.4063,24.5 Q466.6406,24.7656 466.6406,25.375 L466.6406,28 L458.6406,28 Q458.0156,28 457.75,27.7656 Q457.5,27.5313 457.5,27.1406 Q457.5,26.7656 457.7656,26.5313 Q458.0313,26.2969 458.6406,26.2969 L458.9063,26.2969 L458.9063,19.6406 L458.6406,19.6406 Q458.0156,19.6406 457.75,19.4063 Q457.5,19.1719 457.5,18.7813 Q457.5,18.4063 457.75,18.1719 Q458.0156,17.9375 458.6406,17.9375 L466.2656,17.9375 L466.2656,20.5313 Q466.2656,21.1406 466.0313,21.4063 Q465.8125,21.6563 465.4219,21.6563 Q465.0469,21.6563 464.8125,21.4063 Q464.5781,21.1406 464.5781,20.5313 L464.5781,19.6406 L460.6094,19.6406 L460.6094,22.0938 L462.0938,22.0938 Q462.0938,21.4375 462.2188,21.25 Q462.4844,20.8438 462.9531,20.8438 Q463.3281,20.8438 463.5625,21.1094 Q463.7969,21.3594 463.7969,21.9688 L463.7969,23.9375 Q463.7969,24.4844 463.6719,24.6719 Q463.4063,25.0625 462.9531,25.0625 Q462.4844,25.0625 462.2188,24.6563 Q462.0938,24.4688 462.0938,23.7969 L460.6094,23.7969 Z " fill="#000000"/><text fill="#000000" font-family="sans-serif" font-size="14" lengthAdjust="spacing" textLength="70" x="482.25" y="28.7969">Restaurant</text><line style="stroke:#181818;stroke-width:0.5;" x1="398" x2="604" y1="39" y2="39"/><ellipse cx="408" cy="53.8105" fill="#000000" rx="3" ry="3" style="stroke:#000000;stroke-width:1.0;"/><text fill="#000000" font-family="sans-serif" font-size="14" lengthAdjust="spacing" textLength="182" x="417" y="58.1074">id : number &#171;generated, PK&#187;</text><line style="stroke:#181818;stroke-width:1.0;" x1="398" x2="604" y1="65.6211" y2="65.6211"/><ellipse cx="408" cy="80.4316" fill="#000000" rx="3" ry="3" style="stroke:#000000;stroke-width:1.0;"/><text fill="#000000" font-family="sans-serif" font-size="14" lengthAdjust="spacing" textLength="155" x="417" y="84.7285">owner_id : number &#171;FK&#187;</text><ellipse cx="408" cy="99.0527" fill="#000000" rx="3" ry="3" style="stroke:#000000;stroke-width:1.0;"/><text fill="#000000" font-family="sans-serif" font-size="14" lengthAdjust="spacing" textLength="95" x="417" y="103.3496">name : varchar</text></g><!--class BusinessHour--><g id="elem_BusinessHour"><rect codeLine="9" fill="#F1F1F1" height="159.7266" id="BusinessHour" rx="2.5" ry="2.5" style="stroke:#181818;stroke-width:0.5;" width="234" x="7" y="180"/><ellipse cx="76.25" cy="196" fill="#ADD1B2" rx="11" ry="11" style="stroke:#181818;stroke-width:1.0;"/><path d="M75.1094,196.7969 L75.1094,199.2969 L79.4375,199.2969 L79.4375,198.375 Q79.4375,197.7656 79.6719,197.5 Q79.9219,197.2344 80.2969,197.2344 Q80.6719,197.2344 80.9063,197.5 Q81.1406,197.7656 81.1406,198.375 L81.1406,201 L73.1406,201 Q72.5156,201 72.25,200.7656 Q72,200.5313 72,200.1406 Q72,199.7656 72.2656,199.5313 Q72.5313,199.2969 73.1406,199.2969 L73.4063,199.2969 L73.4063,192.6406 L73.1406,192.6406 Q72.5156,192.6406 72.25,192.4063 Q72,192.1719 72,191.7813 Q72,191.4063 72.25,191.1719 Q72.5156,190.9375 73.1406,190.9375 L80.7656,190.9375 L80.7656,193.5313 Q80.7656,194.1406 80.5313,194.4063 Q80.3125,194.6563 79.9219,194.6563 Q79.5469,194.6563 79.3125,194.4063 Q79.0781,194.1406 79.0781,193.5313 L79.0781,192.6406 L75.1094,192.6406 L75.1094,195.0938 L76.5938,195.0938 Q76.5938,194.4375 76.7188,194.25 Q76.9844,193.8438 77.4531,193.8438 Q77.8281,193.8438 78.0625,194.1094 Q78.2969,194.3594 78.2969,194.9688 L78.2969,196.9375 Q78.2969,197.4844 78.1719,197.6719 Q77.9063,198.0625 77.4531,198.0625 Q76.9844,198.0625 76.7188,197.6563 Q76.5938,197.4688 76.5938,196.7969 L75.1094,196.7969 Z " fill="#000000"/><text fill="#000000" font-family="sans-serif" font-size="14" lengthAdjust="spacing" textLength="87" x="96.75" y="201.7969">BusinessHour</text><line style="stroke:#181818;stroke-width:0.5;" x1="8" x2="240" y1="212" y2="212"/><ellipse cx="18" cy="226.8105" fill="#000000" rx="3" ry="3" style="stroke:#000000;stroke-width:1.0;"/><text fill="#000000" font-family="sans-serif" font-size="14" lengthAdjust="spacing" textLength="182" x="27" y="231.1074">id : number &#171;generated, PK&#187;</text><line style="stroke:#181818;stroke-width:1.0;" x1="8" x2="240" y1="238.6211" y2="238.6211"/><ellipse cx="18" cy="253.4316" fill="#000000" rx="3" ry="3" style="stroke:#000000;stroke-width:1.0;"/><text fill="#000000" font-family="sans-serif" font-size="14" lengthAdjust="spacing" textLength="182" x="27" y="257.7285">restaurant_id : number &#171;FK&#187;</text><ellipse cx="18" cy="272.0527" fill="#000000" rx="3" ry="3" style="stroke:#000000;stroke-width:1.0;"/><text fill="#000000" font-family="sans-serif" font-size="14" lengthAdjust="spacing" textLength="115" x="27" y="276.3496">weekday : number</text><ellipse cx="18" cy="290.6738" fill="#000000" rx="3" ry="3" style="stroke:#000000;stroke-width:1.0;"/><text fill="#000000" font-family="sans-serif" font-size="14" lengthAdjust="spacing" textLength="104" x="27" y="294.9707">open_time : time</text><ellipse cx="18" cy="309.2949" fill="#000000" rx="3" ry="3" style="stroke:#000000;stroke-width:1.0;"/><text fill="#000000" font-family="sans-serif" font-size="14" lengthAdjust="spacing" textLength="208" x="27" y="313.5918">open_for_reservation_until : time</text><ellipse cx="18" cy="327.916" fill="#000000" rx="3" ry="3" style="stroke:#000000;stroke-width:1.0;"/><text fill="#000000" font-family="sans-serif" font-size="14" lengthAdjust="spacing" textLength="105" x="27" y="332.2129">close_time : time</text></g><!--class Owner--><g id="elem_Owner"><rect codeLine="19" fill="#F1F1F1" height="141.1055" id="Owner" rx="2.5" ry="2.5" style="stroke:#181818;stroke-width:0.5;" width="208" x="276" y="189.5"/><ellipse cx="355.25" cy="205.5" fill="#ADD1B2" rx="11" ry="11" style="stroke:#181818;stroke-width:1.0;"/><path d="M354.1094,206.2969 L354.1094,208.7969 L358.4375,208.7969 L358.4375,207.875 Q358.4375,207.2656 358.6719,207 Q358.9219,206.7344 359.2969,206.7344 Q359.6719,206.7344 359.9063,207 Q360.1406,207.2656 360.1406,207.875 L360.1406,210.5 L352.1406,210.5 Q351.5156,210.5 351.25,210.2656 Q351,210.0313 351,209.6406 Q351,209.2656 351.2656,209.0313 Q351.5313,208.7969 352.1406,208.7969 L352.4063,208.7969 L352.4063,202.1406 L352.1406,202.1406 Q351.5156,202.1406 351.25,201.9063 Q351,201.6719 351,201.2813 Q351,200.9063 351.25,200.6719 Q351.5156,200.4375 352.1406,200.4375 L359.7656,200.4375 L359.7656,203.0313 Q359.7656,203.6406 359.5313,203.9063 Q359.3125,204.1563 358.9219,204.1563 Q358.5469,204.1563 358.3125,203.9063 Q358.0781,203.6406 358.0781,203.0313 L358.0781,202.1406 L354.1094,202.1406 L354.1094,204.5938 L355.5938,204.5938 Q355.5938,203.9375 355.7188,203.75 Q355.9844,203.3438 356.4531,203.3438 Q356.8281,203.3438 357.0625,203.6094 Q357.2969,203.8594 357.2969,204.4688 L357.2969,206.4375 Q357.2969,206.9844 357.1719,207.1719 Q356.9063,207.5625 356.4531,207.5625 Q355.9844,207.5625 355.7188,207.1563 Q355.5938,206.9688 355.5938,206.2969 L354.1094,206.2969 Z " fill="#000000"/><text fill="#000000" font-family="sans-serif" font-size="14" lengthAdjust="spacing" textLength="41" x="375.75" y="211.2969">Owner</text><line style="stroke:#181818;stroke-width:0.5;" x1="277" x2="483" y1="221.5" y2="221.5"/><ellipse cx="287" cy="236.3105" fill="#000000" rx="3" ry="3" style="stroke:#000000;stroke-width:1.0;"/><text fill="#000000" font-family="sans-serif" font-size="14" lengthAdjust="spacing" textLength="182" x="296" y="240.6074">id : number &#171;generated, PK&#187;</text><line style="stroke:#181818;stroke-width:1.0;" x1="277" x2="483" y1="248.1211" y2="248.1211"/><ellipse cx="287" cy="262.9316" fill="#000000" rx="3" ry="3" style="stroke:#000000;stroke-width:1.0;"/><text fill="#000000" font-family="sans-serif" font-size="14" lengthAdjust="spacing" textLength="126" x="296" y="267.2285">first_name : varchar</text><ellipse cx="287" cy="281.5527" fill="#000000" rx="3" ry="3" style="stroke:#000000;stroke-width:1.0;"/><text fill="#000000" font-family="sans-serif" font-size="14" lengthAdjust="spacing" textLength="125" x="296" y="285.8496">last_name : varchar</text><ellipse cx="287" cy="300.1738" fill="#000000" rx="3" ry="3" style="stroke:#000000;stroke-width:1.0;"/><text fill="#000000" font-family="sans-serif" font-size="14" lengthAdjust="spacing" textLength="93" x="296" y="304.4707">email : varchar</text><text fill="#000000" font-family="sans-serif" font-size="14" lengthAdjust="spacing" textLength="100" x="296" y="323.0918">phone : varchar</text></g><!--class Address--><g id="elem_Address"><rect codeLine="28" fill="#F1F1F1" height="178.3477" id="Address" rx="2.5" ry="2.5" style="stroke:#181818;stroke-width:0.5;" width="208" x="519" y="171"/><ellipse cx="592.75" cy="187" fill="#ADD1B2" rx="11" ry="11" style="stroke:#181818;stroke-width:1.0;"/><path d="M591.6094,187.7969 L591.6094,190.2969 L595.9375,190.2969 L595.9375,189.375 Q595.9375,188.7656 596.1719,188.5 Q596.4219,188.2344 596.7969,188.2344 Q597.1719,188.2344 597.4063,188.5 Q597.6406,188.7656 597.6406,189.375 L597.6406,192 L589.6406,192 Q589.0156,192 588.75,191.7656 Q588.5,191.5313 588.5,191.1406 Q588.5,190.7656 588.7656,190.5313 Q589.0313,190.2969 589.6406,190.2969 L589.9063,190.2969 L589.9063,183.6406 L589.6406,183.6406 Q589.0156,183.6406 588.75,183.4063 Q588.5,183.1719 588.5,182.7813 Q588.5,182.4063 588.75,182.1719 Q589.0156,181.9375 589.6406,181.9375 L597.2656,181.9375 L597.2656,184.5313 Q597.2656,185.1406 597.0313,185.4063 Q596.8125,185.6563 596.4219,185.6563 Q596.0469,185.6563 595.8125,185.4063 Q595.5781,185.1406 595.5781,184.5313 L595.5781,183.6406 L591.6094,183.6406 L591.6094,186.0938 L593.0938,186.0938 Q593.0938,185.4375 593.2188,185.25 Q593.4844,184.8438 593.9531,184.8438 Q594.3281,184.8438 594.5625,185.1094 Q594.7969,185.3594 594.7969,185.9688 L594.7969,187.9375 Q594.7969,188.4844 594.6719,188.6719 Q594.4063,189.0625 593.9531,189.0625 Q593.4844,189.0625 593.2188,188.6563 Q593.0938,188.4688 593.0938,187.7969 L591.6094,187.7969 Z " fill="#000000"/><text fill="#000000" font-family="sans-serif" font-size="14" lengthAdjust="spacing" textLength="52" x="613.25" y="192.7969">Address</text><line style="stroke:#181818;stroke-width:0.5;" x1="520" x2="726" y1="203" y2="203"/><ellipse cx="530" cy="217.8105" fill="#000000" rx="3" ry="3" style="stroke:#000000;stroke-width:1.0;"/><text fill="#000000" font-family="sans-serif" font-size="14" lengthAdjust="spacing" textLength="182" x="539" y="222.1074">id : number &#171;generated, PK&#187;</text><line style="stroke:#181818;stroke-width:1.0;" x1="520" x2="726" y1="229.6211" y2="229.6211"/><ellipse cx="530" cy="244.4316" fill="#000000" rx="3" ry="3" style="stroke:#000000;stroke-width:1.0;"/><text fill="#000000" font-family="sans-serif" font-size="14" lengthAdjust="spacing" textLength="182" x="539" y="248.7285">restaurant_id : number &#171;FK&#187;</text><ellipse cx="530" cy="263.0527" fill="#000000" rx="3" ry="3" style="stroke:#000000;stroke-width:1.0;"/><text fill="#000000" font-family="sans-serif" font-size="14" lengthAdjust="spacing" textLength="139" x="539" y="267.3496">street_name : varchar</text><ellipse cx="530" cy="281.6738" fill="#000000" rx="3" ry="3" style="stroke:#000000;stroke-width:1.0;"/><text fill="#000000" font-family="sans-serif" font-size="14" lengthAdjust="spacing" textLength="155" x="539" y="285.9707">house_number : varchar</text><ellipse cx="530" cy="300.2949" fill="#000000" rx="3" ry="3" style="stroke:#000000;stroke-width:1.0;"/><text fill="#000000" font-family="sans-serif" font-size="14" lengthAdjust="spacing" textLength="137" x="539" y="304.5918">postal_code : number</text><ellipse cx="530" cy="318.916" fill="#000000" rx="3" ry="3" style="stroke:#000000;stroke-width:1.0;"/><text fill="#000000" font-family="sans-serif" font-size="14" lengthAdjust="spacing" textLength="81" x="539" y="323.2129">city : varchar</text><ellipse cx="530" cy="337.5371" fill="#000000" rx="3" ry="3" style="stroke:#000000;stroke-width:1.0;"/><text fill="#000000" font-family="sans-serif" font-size="14" lengthAdjust="spacing" textLength="146" x="539" y="341.834">country_code : varchar</text></g><g id="elem_GMN6"><path d="M440.5,486 L440.5,547.873 A0,0 0 0 0 440.5,547.873 L793.5,547.873 A0,0 0 0 0 793.5,547.873 L793.5,496 L783.5,486 L621.71,486 L620.93,349.11 L613.71,486 L440.5,486 A0,0 0 0 0 440.5,486 " fill="#FEFFDD" style="stroke:#181818;stroke-width:0.5;"/><path d="M783.5,486 L783.5,496 L793.5,496 L783.5,486 " fill="#FEFFDD" style="stroke:#181818;stroke-width:0.5;"/><text fill="#000000" font-family="sans-serif" font-size="13" lengthAdjust="spacing" textLength="332" x="446.5" y="505.0283">&lt;country_code&gt; could also be its own entity, but verifying</text><text fill="#000000" font-family="sans-serif" font-size="13" lengthAdjust="spacing" textLength="271" x="446.5" y="522.3193">correct country-codes inside the sourcecode is</text><text fill="#000000" font-family="sans-serif" font-size="13" lengthAdjust="spacing" textLength="148" x="446.5" y="539.6104">sufficient for our usecase.</text></g><!--class Table--><g id="elem_Table"><rect codeLine="40" fill="#F1F1F1" height="141.1055" id="Table" rx="2.5" ry="2.5" style="stroke:#181818;stroke-width:0.5;" width="323" x="773.5" y="189.5"/><ellipse cx="912.75" cy="205.5" fill="#ADD1B2" rx="11" ry="11" style="stroke:#181818;stroke-width:1.0;"/><path d="M911.6094,206.2969 L911.6094,208.7969 L915.9375,208.7969 L915.9375,207.875 Q915.9375,207.2656 916.1719,207 Q916.4219,206.7344 916.7969,206.7344 Q917.1719,206.7344 917.4063,207 Q917.6406,207.2656 917.6406,207.875 L917.6406,210.5 L909.6406,210.5 Q909.0156,210.5 908.75,210.2656 Q908.5,210.0313 908.5,209.6406 Q908.5,209.2656 908.7656,209.0313 Q909.0313,208.7969 909.6406,208.7969 L909.9063,208.7969 L909.9063,202.1406 L909.6406,202.1406 Q909.0156,202.1406 908.75,201.9063 Q908.5,201.6719 908.5,201.2813 Q908.5,200.9063 908.75,200.6719 Q909.0156,200.4375 909.6406,200.4375 L917.2656,200.4375 L917.2656,203.0313 Q917.2656,203.6406 917.0313,203.9063 Q916.8125,204.1563 916.4219,204.1563 Q916.0469,204.1563 915.8125,203.9063 Q915.5781,203.6406 915.5781,203.0313 L915.5781,202.1406 L911.6094,202.1406 L911.6094,204.5938 L913.0938,204.5938 Q913.0938,203.9375 913.2188,203.75 Q913.4844,203.3438 913.9531,203.3438 Q914.3281,203.3438 914.5625,203.6094 Q914.7969,203.8594 914.7969,204.4688 L914.7969,206.4375 Q914.7969,206.9844 914.6719,207.1719 Q914.4063,207.5625 913.9531,207.5625 Q913.4844,207.5625 913.2188,207.1563 Q913.0938,206.9688 913.0938,206.2969 L911.6094,206.2969 Z " fill="#000000"/><text fill="#000000" font-family="sans-serif" font-size="14" lengthAdjust="spacing" textLength="36" x="933.25" y="211.2969">Table</text><line style="stroke:#181818;stroke-width:0.5;" x1="774.5" x2="1095.5" y1="221.5" y2="221.5"/><ellipse cx="784.5" cy="236.3105" fill="#000000" rx="3" ry="3" style="stroke:#000000;stroke-width:1.0;"/><text fill="#000000" font-family="sans-serif" font-size="14" lengthAdjust="spacing" textLength="182" x="793.5" y="240.6074">id : number &#171;generated, PK&#187;</text><line style="stroke:#181818;stroke-width:1.0;" x1="774.5" x2="1095.5" y1="248.1211" y2="248.1211"/><ellipse cx="784.5" cy="262.9316" fill="#000000" rx="3" ry="3" style="stroke:#000000;stroke-width:1.0;"/><text fill="#000000" font-family="sans-serif" font-size="14" lengthAdjust="spacing" textLength="182" x="793.5" y="267.2285">restaurant_id : number &#171;FK&#187;</text><ellipse cx="784.5" cy="281.5527" fill="#000000" rx="3" ry="3" style="stroke:#000000;stroke-width:1.0;"/><text fill="#000000" font-family="sans-serif" font-size="14" lengthAdjust="spacing" textLength="95" x="793.5" y="285.8496">name : varchar</text><ellipse cx="784.5" cy="300.1738" fill="#000000" rx="3" ry="3" style="stroke:#000000;stroke-width:1.0;"/><text fill="#000000" font-family="sans-serif" font-size="14" lengthAdjust="spacing" textLength="94" x="793.5" y="304.4707">seats : number</text><ellipse cx="784.5" cy="318.7949" fill="#000000" rx="3" ry="3" style="stroke:#000000;stroke-width:1.0;"/><text fill="#000000" font-family="sans-serif" font-size="14" lengthAdjust="spacing" textLength="297" x="793.5" y="323.0918">min_guests_required_for_reservation : number</text></g><!--class Reservation--><g id="elem_Reservation"><rect codeLine="49" fill="#F1F1F1" height="215.5898" id="Reservation" rx="2.5" ry="2.5" style="stroke:#181818;stroke-width:0.5;" width="225" x="828.5" y="409"/><ellipse cx="898.75" cy="425" fill="#ADD1B2" rx="11" ry="11" style="stroke:#181818;stroke-width:1.0;"/><path d="M897.6094,425.7969 L897.6094,428.2969 L901.9375,428.2969 L901.9375,427.375 Q901.9375,426.7656 902.1719,426.5 Q902.4219,426.2344 902.7969,426.2344 Q903.1719,426.2344 903.4063,426.5 Q903.6406,426.7656 903.6406,427.375 L903.6406,430 L895.6406,430 Q895.0156,430 894.75,429.7656 Q894.5,429.5313 894.5,429.1406 Q894.5,428.7656 894.7656,428.5313 Q895.0313,428.2969 895.6406,428.2969 L895.9063,428.2969 L895.9063,421.6406 L895.6406,421.6406 Q895.0156,421.6406 894.75,421.4063 Q894.5,421.1719 894.5,420.7813 Q894.5,420.4063 894.75,420.1719 Q895.0156,419.9375 895.6406,419.9375 L903.2656,419.9375 L903.2656,422.5313 Q903.2656,423.1406 903.0313,423.4063 Q902.8125,423.6563 902.4219,423.6563 Q902.0469,423.6563 901.8125,423.4063 Q901.5781,423.1406 901.5781,422.5313 L901.5781,421.6406 L897.6094,421.6406 L897.6094,424.0938 L899.0938,424.0938 Q899.0938,423.4375 899.2188,423.25 Q899.4844,422.8438 899.9531,422.8438 Q900.3281,422.8438 900.5625,423.1094 Q900.7969,423.3594 900.7969,423.9688 L900.7969,425.9375 Q900.7969,426.4844 900.6719,426.6719 Q900.4063,427.0625 899.9531,427.0625 Q899.4844,427.0625 899.2188,426.6563 Q899.0938,426.4688 899.0938,425.7969 L897.6094,425.7969 Z " fill="#000000"/><text fill="#000000" font-family="sans-serif" font-size="14" lengthAdjust="spacing" textLength="76" x="919.25" y="430.7969">Reservation</text><line style="stroke:#181818;stroke-width:0.5;" x1="829.5" x2="1052.5" y1="441" y2="441"/><ellipse cx="839.5" cy="455.8105" fill="#000000" rx="3" ry="3" style="stroke:#000000;stroke-width:1.0;"/><text fill="#000000" font-family="sans-serif" font-size="14" lengthAdjust="spacing" textLength="182" x="848.5" y="460.1074">id : number &#171;generated, PK&#187;</text><line style="stroke:#181818;stroke-width:1.0;" x1="829.5" x2="1052.5" y1="467.6211" y2="467.6211"/><ellipse cx="839.5" cy="482.4316" fill="#000000" rx="3" ry="3" style="stroke:#000000;stroke-width:1.0;"/><text fill="#000000" font-family="sans-serif" font-size="14" lengthAdjust="spacing" textLength="148" x="848.5" y="486.7285">table_id : number &#171;FK&#187;</text><ellipse cx="839.5" cy="501.0527" fill="#000000" rx="3" ry="3" style="stroke:#000000;stroke-width:1.0;"/><text fill="#000000" font-family="sans-serif" font-size="14" lengthAdjust="spacing" textLength="161" x="848.5" y="505.3496">customer_name : varchar</text><ellipse cx="839.5" cy="519.6738" fill="#000000" rx="3" ry="3" style="stroke:#000000;stroke-width:1.0;"/><text fill="#000000" font-family="sans-serif" font-size="14" lengthAdjust="spacing" textLength="159" x="848.5" y="523.9707">customer_email : varchar</text><ellipse cx="839.5" cy="538.2949" fill="#000000" rx="3" ry="3" style="stroke:#000000;stroke-width:1.0;"/><text fill="#000000" font-family="sans-serif" font-size="14" lengthAdjust="spacing" textLength="154" x="848.5" y="542.5918">reserved_from: datetime</text><ellipse cx="839.5" cy="556.916" fill="#000000" rx="3" ry="3" style="stroke:#000000;stroke-width:1.0;"/><text fill="#000000" font-family="sans-serif" font-size="14" lengthAdjust="spacing" textLength="152" x="848.5" y="561.2129">reserved_until: datetime</text><ellipse cx="839.5" cy="575.5371" fill="#000000" rx="3" ry="3" style="stroke:#000000;stroke-width:1.0;"/><text fill="#000000" font-family="sans-serif" font-size="14" lengthAdjust="spacing" textLength="150" x="848.5" y="579.834">guest_amount : number</text><text fill="#000000" font-family="sans-serif" font-size="14" lengthAdjust="spacing" textLength="166" x="848.5" y="598.4551">customer_phone : varchar</text><text fill="#000000" font-family="sans-serif" font-size="14" lengthAdjust="spacing" textLength="199" x="848.5" y="617.0762">additional_information : varchar</text></g><!--link Restaurant to Owner--><g id="link_Restaurant_Owner"><path codeLine="62" d="M465.53,118.33 C453.36,138.35 439.54,161.08 426.62,182.33 " fill="none" id="Restaurant-Owner" style="stroke:#181818;stroke-width:1.0;"/><line style="stroke:#181818;stroke-width:1.0;" x1="465.6863" x2="464.7121" y1="118.0872" y2="108.1347"/><line style="stroke:#181818;stroke-width:1.0;" x1="465.6863" x2="474.9679" y1="118.0872" y2="114.3653"/><line style="stroke:#181818;stroke-width:1.0;" x1="465.6863" x2="469.84" y1="118.0872" y2="111.25"/><ellipse cx="462.571" cy="123.215" fill="none" rx="4" ry="4" style="stroke:#181818;stroke-width:1.0;"/><line style="stroke:#181818;stroke-width:1.0;" x1="427.9567" x2="421.1234" y1="187.8434" y2="183.6833"/><line style="stroke:#181818;stroke-width:1.0;" x1="429.5167" x2="422.6834" y1="185.2809" y2="181.1208"/><line style="stroke:#181818;stroke-width:1.0;" x1="426.62" x2="422.46" y1="182.3467" y2="189.18"/></g><!--link Restaurant to BusinessHour--><g id="link_Restaurant_BusinessHour"><path codeLine="63" d="M389.24,106.76 C347.37,125.39 299.84,147.88 258,171 C254.67,172.84 251.32,174.73 247.95,176.67 " fill="none" id="Restaurant-BusinessHour" style="stroke:#181818;stroke-width:1.0;"/><line style="stroke:#181818;stroke-width:1.0;" x1="391.442" x2="394.6845" y1="101.4145" y2="108.728"/><line style="stroke:#181818;stroke-width:1.0;" x1="388.6995" x2="391.942" y1="102.6305" y2="109.9439"/><line style="stroke:#181818;stroke-width:1.0;" x1="389.4066" x2="396.72" y1="106.6925" y2="103.45"/><line style="stroke:#181818;stroke-width:1.0;" x1="247.9423" x2="244.0506" y1="176.6726" y2="185.8842"/><line style="stroke:#181818;stroke-width:1.0;" x1="247.9423" x2="238.0094" y1="176.6726" y2="175.5158"/><line style="stroke:#181818;stroke-width:1.0;" x1="247.9423" x2="241.03" y1="176.6726" y2="180.7"/><ellipse cx="253.1265" cy="173.652" fill="none" rx="4" ry="4" style="stroke:#181818;stroke-width:1.0;"/></g><!--link Restaurant to Address--><g id="link_Restaurant_Address"><path codeLine="64" d="M536.14,117.32 C545.27,132.21 555.35,148.65 565.31,164.9 " fill="none" id="Restaurant-Address" style="stroke:#181818;stroke-width:1.0;"/><line style="stroke:#181818;stroke-width:1.0;" x1="531.1076" x2="537.9225" y1="116.7525" y2="112.5624"/><line style="stroke:#181818;stroke-width:1.0;" x1="532.6788" x2="539.4938" y1="119.3081" y2="115.1181"/><line style="stroke:#181818;stroke-width:1.0;" x1="536.6101" x2="532.42" y1="118.0649" y2="111.25"/><line style="stroke:#181818;stroke-width:1.0;" x1="570.292" x2="563.4698" y1="165.3698" y2="169.548"/><line style="stroke:#181818;stroke-width:1.0;" x1="568.7252" x2="561.903" y1="162.8115" y2="166.9897"/><line style="stroke:#181818;stroke-width:1.0;" x1="564.7918" x2="568.97" y1="164.0478" y2="170.87"/></g><!--link Restaurant to Table--><g id="link_Restaurant_Table"><path codeLine="66" d="M612.68,110.61 C654.25,129.5 701.81,151.17 745,171 C755.71,175.91 766.74,180.99 777.86,186.12 " fill="none" id="Restaurant-Table" style="stroke:#181818;stroke-width:1.0;"/><line style="stroke:#181818;stroke-width:1.0;" x1="607.2447" x2="610.5573" y1="112.5373" y2="105.2553"/><line style="stroke:#181818;stroke-width:1.0;" x1="609.9754" x2="613.288" y1="113.7795" y2="106.4975"/><line style="stroke:#181818;stroke-width:1.0;" x1="612.542" x2="605.26" y1="110.5526" y2="107.24"/><line style="stroke:#181818;stroke-width:1.0;" x1="777.9038" x2="787.6803" y1="186.143" y2="184.0404"/><line style="stroke:#181818;stroke-width:1.0;" x1="777.9038" x2="782.6597" y1="186.143" y2="194.9396"/><line style="stroke:#181818;stroke-width:1.0;" x1="777.9038" x2="785.17" y1="186.143" y2="189.49"/><ellipse cx="772.4542" cy="183.6327" fill="none" rx="4" ry="4" style="stroke:#181818;stroke-width:1.0;"/></g><!--link Table to Reservation--><g id="link_Table_Reservation"><path codeLine="67" d="M936.83,338.69 C937.29,358.22 937.79,379.62 938.28,400.57 " fill="none" id="Table-Reservation" style="stroke:#181818;stroke-width:1.0;"/><line style="stroke:#181818;stroke-width:1.0;" x1="932.7339" x2="940.7318" y1="334.7718" y2="334.5861"/><line style="stroke:#181818;stroke-width:1.0;" x1="932.8035" x2="940.8014" y1="337.7709" y2="337.5853"/><line style="stroke:#181818;stroke-width:1.0;" x1="936.8257" x2="936.64" y1="338.6778" y2="330.68"/><line style="stroke:#181818;stroke-width:1.0;" x1="938.2843" x2="944.4684" y1="400.5722" y2="408.4308"/><line style="stroke:#181818;stroke-width:1.0;" x1="938.2843" x2="932.4716" y1="400.5722" y2="408.7092"/><line style="stroke:#181818;stroke-width:1.0;" x1="938.2843" x2="938.47" y1="400.5722" y2="408.57"/><ellipse cx="938.1451" cy="394.5738" fill="none" rx="4" ry="4" style="stroke:#181818;stroke-width:1.0;"/></g><!--SRC=[jLHDQ-Cm4BtxLyovrFi3GWXq3yj23orbZmKZI-D4rDPaDL9AQFhVEx9ZntQTIw2-6FJcuysR9w4BDXpX1Jcew9KBy961V7TW3Qp0nQP43-lr5Xrw5T3Sm_FZPjF6vFavbDu5BAO9V_geEt2gGO4EokkTyjbdbc7NzNTawv3vBqL_Iry_iBxU_1tnpQZZWFQKz-YAO5jYwJS-hiWNKXhzGGLBheZ2jfx6wPeO9_cNgPwI6hUCKrdFePYfrK6rkePWerfouzFzZjoouW_6o6JyKs9py8XNYEueYcJdh3cu9obU5veCpZUb4-zvl2PPYZ_s2PT17GM4aaAW1gWQvbt1UfooIGLg0wfcWXB11aucXawbUoXZW0DwMnsjsxuwJTwZ3dtNF9LWi8wjT0yx11O3Qsp9M7vr7AlAQYlLGBm4oTqokrQCluPD_5DbZJ-rXyK5CAh0StKRwufjb98iblyVhKSpz_ybvUAZbn5ymmmX3N-Tleui-vCdPN6E0LsoVgkFK4jZU6fMO8J3wE8EQ7kfly6j58LgqgAdKWrTvvShWSeOcxGG2ridyZMzSACRE7fYFodFJwVkeHYVdqvvJX-JPt4EIzhPqzb2PckghBFM-MYqgUmB]--></g></svg>