<?xml version="1.0" encoding="us-ascii" standalone="no"?><svg xmlns="http://www.w3.org/2000/svg" xmlns:xlink="http://www.w3.org/1999/xlink" contentStyleType="text/css" height="631px" preserveAspectRatio="none" style="width:1383px;height:631px;background:#FFFFFF;" version="1.1" viewBox="0 0 1383 631" width="1383px" zoomAndPan="magnify"><defs/><g><!--class Restaurant--><g id="elem_Restaurant"><rect codeLine="2" fill="#F1F1F1" height="122.4844" id="Restaurant" rx="2.5" ry="2.5" style="stroke:#181818;stroke-width:0.5;" width="208" x="397" y="7"/><ellipse cx="461.75" cy="23" fill="#ADD1B2" rx="11" ry="11" style="stroke:#181818;stroke-width:1.0;"/><path d="M460.6094,23.7969 L460.6094,26.2969 L464.9375,26.2969 L464.9375,25.375 Q464.9375,24.7656 465.1719,24.5 Q465.4219,24.2344 465.7969,24.2344 Q466.1719,24.2344 466.4063,24.5 Q466.6406,24.7656 466.6406,25.375 L466.6406,28 L458.6406,28 Q458.0156,28 457.75,27.7656 Q457.5,27.5313 457.5,27.1406 Q457.5,26.7656 457.7656,26.5313 Q458.0313,26.2969 458.6406,26.2969 L458.9063,26.2969 L458.9063,19.6406 L458.6406,19.6406 Q458.0156,19.6406 457.75,19.4063 Q457.5,19.1719 457.5,18.7813 Q457.5,18.4063 457.75,18.1719 Q458.0156,17.9375 458.6406,17.9375 L466.2656,17.9375 L466.2656,20.5313 Q466.2656,21.1406 466.0313,21.4063 Q465.8125,21.6563 465.4219,21.6563 Q465.0469,21.6563 464.8125,21.4063 Q464.5781,21.1406 464.5781,20.5313 L464.5781,19.6406 L460.6094,19.6406 L460.6094,22.0938 L462.0938,22.0938 Q462.0938,21.4375 462.2188,21.25 Q462.4844,20.8438 462.9531,20.8438 Q463.3281,20.8438 463.5625,21.1094 Q463.7969,21.3594 463.7969,21.9688 L463.7969,23.9375 Q463.7969,24.4844 463.6719,24.6719 Q463.4063,25.0625 462.9531,25.0625 Q462.4844,25.0625 462.2188,24.6563 Q462.0938,24.4688 462.0938,23.7969 L460.6094,23.7969 Z " fill="#000000"/><text fill="#000000" font-family="sans-serif" font-size="14" lengthAdjust="spacing" textLength="70" x="482.25" y="28.7969">Restaurant</text><line style="stroke:#181818;stroke-width:0.5;" x1="398" x2="604" y1="39" y2="39"/><ellipse cx="408" cy="53.8105" fill="#000000" rx="3" ry="3" style="stroke:#000000;stroke-width:1.0;"/><text fill="#000000" font-family="sans-serif" font-size="14" lengthAdjust="spacing" textLength="182" x="417" y="58.1074">id : number &#171;generated, PK&#187;</text><line style="stroke:#181818;stroke-width:1.0;" x1="398" x2="604" y1="65.6211" y2="65.6211"/><ellipse cx="408" cy="80.4316" fill="#000000" rx="3" ry="3" style="stroke:#000000;stroke-width:1.0;"/><text fill="#000000" font-family="sans-serif" font-size="14" lengthAdjust="spacing" textLength="155" x="417" y="84.7285">owner_id : number &#171;FK&#187;</text><ellipse cx="408" cy="99.0527" fill="#000000" rx="3" ry="3" style="stroke:#000000;stroke-width:1.0;"/><text fill="#000000" font-family="sans-serif" font-size="14" lengthAdjust="spacing" textLength="168" x="417" y="103.3496">address_id : number &#171;FK&#187;</text><ellipse cx="408" cy="117.6738" fill="#000000" rx="3" ry="3" style="stroke:#000000;stroke-width:1.0;"/><text fill="#000000" font-family="sans-serif" font-size="14" lengthAdjust="spacing" textLength="95" x="417" y="121.9707">name : varchar</text></g><!--class BusinessHour--><g id="elem_BusinessHour"><rect codeLine="10" fill="#F1F1F1" height="159.7266" id="BusinessHour" rx="2.5" ry="2.5" style="stroke:#181818;stroke-width:0.5;" width="234" x="7" y="189"/><ellipse cx="76.25" cy="205" fill="#ADD1B2" rx="11" ry="11" style="stroke:#181818;stroke-width:1.0;"/><path d="M75.1094,205.7969 L75.1094,208.2969 L79.4375,208.2969 L79.4375,207.375 Q79.4375,206.7656 79.6719,206.5 Q79.9219,206.2344 80.2969,206.2344 Q80.6719,206.2344 80.9063,206.5 Q81.1406,206.7656 81.1406,207.375 L81.1406,210 L73.1406,210 Q72.5156,210 72.25,209.7656 Q72,209.5313 72,209.1406 Q72,208.7656 72.2656,208.5313 Q72.5313,208.2969 73.1406,208.2969 L73.4063,208.2969 L73.4063,201.6406 L73.1406,201.6406 Q72.5156,201.6406 72.25,201.4063 Q72,201.1719 72,200.7813 Q72,200.4063 72.25,200.1719 Q72.5156,199.9375 73.1406,199.9375 L80.7656,199.9375 L80.7656,202.5313 Q80.7656,203.1406 80.5313,203.4063 Q80.3125,203.6563 79.9219,203.6563 Q79.5469,203.6563 79.3125,203.4063 Q79.0781,203.1406 79.0781,202.5313 L79.0781,201.6406 L75.1094,201.6406 L75.1094,204.0938 L76.5938,204.0938 Q76.5938,203.4375 76.7188,203.25 Q76.9844,202.8438 77.4531,202.8438 Q77.8281,202.8438 78.0625,203.1094 Q78.2969,203.3594 78.2969,203.9688 L78.2969,205.9375 Q78.2969,206.4844 78.1719,206.6719 Q77.9063,207.0625 77.4531,207.0625 Q76.9844,207.0625 76.7188,206.6563 Q76.5938,206.4688 76.5938,205.7969 L75.1094,205.7969 Z " fill="#000000"/><text fill="#000000" font-family="sans-serif" font-size="14" lengthAdjust="spacing" textLength="87" x="96.75" y="210.7969">BusinessHour</text><line style="stroke:#181818;stroke-width:0.5;" x1="8" x2="240" y1="221" y2="221"/><ellipse cx="18" cy="235.8105" fill="#000000" rx="3" ry="3" style="stroke:#000000;stroke-width:1.0;"/><text fill="#000000" font-family="sans-serif" font-size="14" lengthAdjust="spacing" textLength="182" x="27" y="240.1074">id : number &#171;generated, PK&#187;</text><line style="stroke:#181818;stroke-width:1.0;" x1="8" x2="240" y1="247.6211" y2="247.6211"/><ellipse cx="18" cy="262.4316" fill="#000000" rx="3" ry="3" style="stroke:#000000;stroke-width:1.0;"/><text fill="#000000" font-family="sans-serif" font-size="14" lengthAdjust="spacing" textLength="182" x="27" y="266.7285">restaurant_id : number &#171;FK&#187;</text><ellipse cx="18" cy="281.0527" fill="#000000" rx="3" ry="3" style="stroke:#000000;stroke-width:1.0;"/><text fill="#000000" font-family="sans-serif" font-size="14" lengthAdjust="spacing" textLength="115" x="27" y="285.3496">weekday : number</text><ellipse cx="18" cy="299.6738" fill="#000000" rx="3" ry="3" style="stroke:#000000;stroke-width:1.0;"/><text fill="#000000" font-family="sans-serif" font-size="14" lengthAdjust="spacing" textLength="104" x="27" y="303.9707">open_time : time</text><ellipse cx="18" cy="318.2949" fill="#000000" rx="3" ry="3" style="stroke:#000000;stroke-width:1.0;"/><text fill="#000000" font-family="sans-serif" font-size="14" lengthAdjust="spacing" textLength="208" x="27" y="322.5918">open_for_reservation_until : time</text><ellipse cx="18" cy="336.916" fill="#000000" rx="3" ry="3" style="stroke:#000000;stroke-width:1.0;"/><text fill="#000000" font-family="sans-serif" font-size="14" lengthAdjust="spacing" textLength="105" x="27" y="341.2129">close_time : time</text></g><!--class Owner--><g id="elem_Owner"><rect codeLine="20" fill="#F1F1F1" height="141.1055" id="Owner" rx="2.5" ry="2.5" style="stroke:#181818;stroke-width:0.5;" width="208" x="276" y="198.5"/><ellipse cx="355.25" cy="214.5" fill="#ADD1B2" rx="11" ry="11" style="stroke:#181818;stroke-width:1.0;"/><path d="M354.1094,215.2969 L354.1094,217.7969 L358.4375,217.7969 L358.4375,216.875 Q358.4375,216.2656 358.6719,216 Q358.9219,215.7344 359.2969,215.7344 Q359.6719,215.7344 359.9063,216 Q360.1406,216.2656 360.1406,216.875 L360.1406,219.5 L352.1406,219.5 Q351.5156,219.5 351.25,219.2656 Q351,219.0313 351,218.6406 Q351,218.2656 351.2656,218.0313 Q351.5313,217.7969 352.1406,217.7969 L352.4063,217.7969 L352.4063,211.1406 L352.1406,211.1406 Q351.5156,211.1406 351.25,210.9063 Q351,210.6719 351,210.2813 Q351,209.9063 351.25,209.6719 Q351.5156,209.4375 352.1406,209.4375 L359.7656,209.4375 L359.7656,212.0313 Q359.7656,212.6406 359.5313,212.9063 Q359.3125,213.1563 358.9219,213.1563 Q358.5469,213.1563 358.3125,212.9063 Q358.0781,212.6406 358.0781,212.0313 L358.0781,211.1406 L354.1094,211.1406 L354.1094,213.5938 L355.5938,213.5938 Q355.5938,212.9375 355.7188,212.75 Q355.9844,212.3438 356.4531,212.3438 Q356.8281,212.3438 357.0625,212.6094 Q357.2969,212.8594 357.2969,213.4688 L357.2969,215.4375 Q357.2969,215.9844 357.1719,216.1719 Q356.9063,216.5625 356.4531,216.5625 Q355.9844,216.5625 355.7188,216.1563 Q355.5938,215.9688 355.5938,215.2969 L354.1094,215.2969 Z " fill="#000000"/><text fill="#000000" font-family="sans-serif" font-size="14" lengthAdjust="spacing" textLength="41" x="375.75" y="220.2969">Owner</text><line style="stroke:#181818;stroke-width:0.5;" x1="277" x2="483" y1="230.5" y2="230.5"/><ellipse cx="287" cy="245.3105" fill="#000000" rx="3" ry="3" style="stroke:#000000;stroke-width:1.0;"/><text fill="#000000" font-family="sans-serif" font-size="14" lengthAdjust="spacing" textLength="182" x="296" y="249.6074">id : number &#171;generated, PK&#187;</text><line style="stroke:#181818;stroke-width:1.0;" x1="277" x2="483" y1="257.1211" y2="257.1211"/><ellipse cx="287" cy="271.9316" fill="#000000" rx="3" ry="3" style="stroke:#000000;stroke-width:1.0;"/><text fill="#000000" font-family="sans-serif" font-size="14" lengthAdjust="spacing" textLength="126" x="296" y="276.2285">first_name : varchar</text><ellipse cx="287" cy="290.5527" fill="#000000" rx="3" ry="3" style="stroke:#000000;stroke-width:1.0;"/><text fill="#000000" font-family="sans-serif" font-size="14" lengthAdjust="spacing" textLength="125" x="296" y="294.8496">last_name : varchar</text><ellipse cx="287" cy="309.1738" fill="#000000" rx="3" ry="3" style="stroke:#000000;stroke-width:1.0;"/><text fill="#000000" font-family="sans-serif" font-size="14" lengthAdjust="spacing" textLength="93" x="296" y="313.4707">email : varchar</text><text fill="#000000" font-family="sans-serif" font-size="14" lengthAdjust="spacing" textLength="100" x="296" y="332.0918">phone : varchar</text></g><!--class Address--><g id="elem_Address"><rect codeLine="29" fill="#F1F1F1" height="159.7266" id="Address" rx="2.5" ry="2.5" style="stroke:#181818;stroke-width:0.5;" width="208" x="519" y="189"/><ellipse cx="592.75" cy="205" fill="#ADD1B2" rx="11" ry="11" style="stroke:#181818;stroke-width:1.0;"/><path d="M591.6094,205.7969 L591.6094,208.2969 L595.9375,208.2969 L595.9375,207.375 Q595.9375,206.7656 596.1719,206.5 Q596.4219,206.2344 596.7969,206.2344 Q597.1719,206.2344 597.4063,206.5 Q597.6406,206.7656 597.6406,207.375 L597.6406,210 L589.6406,210 Q589.0156,210 588.75,209.7656 Q588.5,209.5313 588.5,209.1406 Q588.5,208.7656 588.7656,208.5313 Q589.0313,208.2969 589.6406,208.2969 L589.9063,208.2969 L589.9063,201.6406 L589.6406,201.6406 Q589.0156,201.6406 588.75,201.4063 Q588.5,201.1719 588.5,200.7813 Q588.5,200.4063 588.75,200.1719 Q589.0156,199.9375 589.6406,199.9375 L597.2656,199.9375 L597.2656,202.5313 Q597.2656,203.1406 597.0313,203.4063 Q596.8125,203.6563 596.4219,203.6563 Q596.0469,203.6563 595.8125,203.4063 Q595.5781,203.1406 595.5781,202.5313 L595.5781,201.6406 L591.6094,201.6406 L591.6094,204.0938 L593.0938,204.0938 Q593.0938,203.4375 593.2188,203.25 Q593.4844,202.8438 593.9531,202.8438 Q594.3281,202.8438 594.5625,203.1094 Q594.7969,203.3594 594.7969,203.9688 L594.7969,205.9375 Q594.7969,206.4844 594.6719,206.6719 Q594.4063,207.0625 593.9531,207.0625 Q593.4844,207.0625 593.2188,206.6563 Q593.0938,206.4688 593.0938,205.7969 L591.6094,205.7969 Z " fill="#000000"/><text fill="#000000" font-family="sans-serif" font-size="14" lengthAdjust="spacing" textLength="52" x="613.25" y="210.7969">Address</text><line style="stroke:#181818;stroke-width:0.5;" x1="520" x2="726" y1="221" y2="221"/><ellipse cx="530" cy="235.8105" fill="#000000" rx="3" ry="3" style="stroke:#000000;stroke-width:1.0;"/><text fill="#000000" font-family="sans-serif" font-size="14" lengthAdjust="spacing" textLength="182" x="539" y="240.1074">id : number &#171;generated, PK&#187;</text><line style="stroke:#181818;stroke-width:1.0;" x1="520" x2="726" y1="247.6211" y2="247.6211"/><ellipse cx="530" cy="262.4316" fill="#000000" rx="3" ry="3" style="stroke:#000000;stroke-width:1.0;"/><text fill="#000000" font-family="sans-serif" font-size="14" lengthAdjust="spacing" textLength="139" x="539" y="266.7285">street_name : varchar</text><ellipse cx="530" cy="281.0527" fill="#000000" rx="3" ry="3" style="stroke:#000000;stroke-width:1.0;"/><text fill="#000000" font-family="sans-serif" font-size="14" lengthAdjust="spacing" textLength="155" x="539" y="285.3496">house_number : varchar</text><ellipse cx="530" cy="299.6738" fill="#000000" rx="3" ry="3" style="stroke:#000000;stroke-width:1.0;"/><text fill="#000000" font-family="sans-serif" font-size="14" lengthAdjust="spacing" textLength="137" x="539" y="303.9707">postal_code : number</text><ellipse cx="530" cy="318.2949" fill="#000000" rx="3" ry="3" style="stroke:#000000;stroke-width:1.0;"/><text fill="#000000" font-family="sans-serif" font-size="14" lengthAdjust="spacing" textLength="81" x="539" y="322.5918">city : varchar</text><ellipse cx="530" cy="336.916" fill="#000000" rx="3" ry="3" style="stroke:#000000;stroke-width:1.0;"/><text fill="#000000" font-family="sans-serif" font-size="14" lengthAdjust="spacing" textLength="146" x="539" y="341.2129">country_code : varchar</text></g><g id="elem_GMN6"><path d="M409.5,486 L409.5,547.873 A0,0 0 0 0 409.5,547.873 L762.5,547.873 A0,0 0 0 0 762.5,547.873 L762.5,496 L752.5,486 L594.52,486 L611.09,349.19 L586.52,486 L409.5,486 A0,0 0 0 0 409.5,486 " fill="#FEFFDD" style="stroke:#181818;stroke-width:0.5;"/><path d="M752.5,486 L752.5,496 L762.5,496 L752.5,486 " fill="#FEFFDD" style="stroke:#181818;stroke-width:0.5;"/><text fill="#000000" font-family="sans-serif" font-size="13" lengthAdjust="spacing" textLength="332" x="415.5" y="505.0283">&lt;country_code&gt; could also be its own entity, but verifying</text><text fill="#000000" font-family="sans-serif" font-size="13" lengthAdjust="spacing" textLength="271" x="415.5" y="522.3193">correct country-codes inside the sourcecode is</text><text fill="#000000" font-family="sans-serif" font-size="13" lengthAdjust="spacing" textLength="148" x="415.5" y="539.6104">sufficient for our usecase.</text></g><!--class Table--><g id="elem_Table"><rect codeLine="40" fill="#F1F1F1" height="159.7266" id="Table" rx="2.5" ry="2.5" style="stroke:#181818;stroke-width:0.5;" width="315" x="799.5" y="189"/><ellipse cx="934.75" cy="205" fill="#ADD1B2" rx="11" ry="11" style="stroke:#181818;stroke-width:1.0;"/><path d="M933.6094,205.7969 L933.6094,208.2969 L937.9375,208.2969 L937.9375,207.375 Q937.9375,206.7656 938.1719,206.5 Q938.4219,206.2344 938.7969,206.2344 Q939.1719,206.2344 939.4063,206.5 Q939.6406,206.7656 939.6406,207.375 L939.6406,210 L931.6406,210 Q931.0156,210 930.75,209.7656 Q930.5,209.5313 930.5,209.1406 Q930.5,208.7656 930.7656,208.5313 Q931.0313,208.2969 931.6406,208.2969 L931.9063,208.2969 L931.9063,201.6406 L931.6406,201.6406 Q931.0156,201.6406 930.75,201.4063 Q930.5,201.1719 930.5,200.7813 Q930.5,200.4063 930.75,200.1719 Q931.0156,199.9375 931.6406,199.9375 L939.2656,199.9375 L939.2656,202.5313 Q939.2656,203.1406 939.0313,203.4063 Q938.8125,203.6563 938.4219,203.6563 Q938.0469,203.6563 937.8125,203.4063 Q937.5781,203.1406 937.5781,202.5313 L937.5781,201.6406 L933.6094,201.6406 L933.6094,204.0938 L935.0938,204.0938 Q935.0938,203.4375 935.2188,203.25 Q935.4844,202.8438 935.9531,202.8438 Q936.3281,202.8438 936.5625,203.1094 Q936.7969,203.3594 936.7969,203.9688 L936.7969,205.9375 Q936.7969,206.4844 936.6719,206.6719 Q936.4063,207.0625 935.9531,207.0625 Q935.4844,207.0625 935.2188,206.6563 Q935.0938,206.4688 935.0938,205.7969 L933.6094,205.7969 Z " fill="#000000"/><text fill="#000000" font-family="sans-serif" font-size="14" lengthAdjust="spacing" textLength="36" x="955.25" y="210.7969">Table</text><line style="stroke:#181818;stroke-width:0.5;" x1="800.5" x2="1113.5" y1="221" y2="221"/><ellipse cx="810.5" cy="235.8105" fill="#000000" rx="3" ry="3" style="stroke:#000000;stroke-width:1.0;"/><text fill="#000000" font-family="sans-serif" font-size="14" lengthAdjust="spacing" textLength="182" x="819.5" y="240.1074">id : number &#171;generated, PK&#187;</text><line style="stroke:#181818;stroke-width:1.0;" x1="800.5" x2="1113.5" y1="247.6211" y2="247.6211"/><ellipse cx="810.5" cy="262.4316" fill="#000000" rx="3" ry="3" style="stroke:#000000;stroke-width:1.0;"/><text fill="#000000" font-family="sans-serif" font-size="14" lengthAdjust="spacing" textLength="182" x="819.5" y="266.7285">restaurant_id : number &#171;FK&#187;</text><ellipse cx="810.5" cy="281.0527" fill="#000000" rx="3" ry="3" style="stroke:#000000;stroke-width:1.0;"/><text fill="#000000" font-family="sans-serif" font-size="14" lengthAdjust="spacing" textLength="95" x="819.5" y="285.3496">name : varchar</text><ellipse cx="810.5" cy="299.6738" fill="#000000" rx="3" ry="3" style="stroke:#000000;stroke-width:1.0;"/><text fill="#000000" font-family="sans-serif" font-size="14" lengthAdjust="spacing" textLength="94" x="819.5" y="303.9707">seats : number</text><ellipse cx="810.5" cy="318.2949" fill="#000000" rx="3" ry="3" style="stroke:#000000;stroke-width:1.0;"/><text fill="#000000" font-family="sans-serif" font-size="14" lengthAdjust="spacing" textLength="289" x="819.5" y="322.5918">min_seats_required_for_reservation : number</text><text fill="#000000" font-family="sans-serif" font-size="14" lengthAdjust="spacing" textLength="153" x="819.5" y="341.2129">disabled_until : datetime</text></g><g id="elem_GMN10"><path d="M797.5,486 L797.5,547.873 A0,0 0 0 0 797.5,547.873 L1116.5,547.873 A0,0 0 0 0 1116.5,547.873 L1116.5,496 L1106.5,486 L961,486 L957,349.19 L953,486 L797.5,486 A0,0 0 0 0 797.5,486 " fill="#FEFFDD" style="stroke:#181818;stroke-width:0.5;"/><path d="M1106.5,486 L1106.5,496 L1116.5,496 L1106.5,486 " fill="#FEFFDD" style="stroke:#181818;stroke-width:0.5;"/><text fill="#000000" font-family="sans-serif" font-size="13" lengthAdjust="spacing" textLength="298" x="803.5" y="505.0283">&lt;disabled_until&gt; allows the owner to disable certain</text><text fill="#000000" font-family="sans-serif" font-size="13" lengthAdjust="spacing" textLength="214" x="803.5" y="522.3193">tables until a specified point in time if</text><text fill="#000000" font-family="sans-serif" font-size="13" lengthAdjust="spacing" textLength="217" x="803.5" y="539.6104">they are - for example - short on staff.</text></g><!--class Reservation--><g id="elem_Reservation"><rect codeLine="51" fill="#F1F1F1" height="215.5898" id="Reservation" rx="2.5" ry="2.5" style="stroke:#181818;stroke-width:0.5;" width="225" x="1151.5" y="409"/><ellipse cx="1221.75" cy="425" fill="#ADD1B2" rx="11" ry="11" style="stroke:#181818;stroke-width:1.0;"/><path d="M1220.6094,425.7969 L1220.6094,428.2969 L1224.9375,428.2969 L1224.9375,427.375 Q1224.9375,426.7656 1225.1719,426.5 Q1225.4219,426.2344 1225.7969,426.2344 Q1226.1719,426.2344 1226.4063,426.5 Q1226.6406,426.7656 1226.6406,427.375 L1226.6406,430 L1218.6406,430 Q1218.0156,430 1217.75,429.7656 Q1217.5,429.5313 1217.5,429.1406 Q1217.5,428.7656 1217.7656,428.5313 Q1218.0313,428.2969 1218.6406,428.2969 L1218.9063,428.2969 L1218.9063,421.6406 L1218.6406,421.6406 Q1218.0156,421.6406 1217.75,421.4063 Q1217.5,421.1719 1217.5,420.7813 Q1217.5,420.4063 1217.75,420.1719 Q1218.0156,419.9375 1218.6406,419.9375 L1226.2656,419.9375 L1226.2656,422.5313 Q1226.2656,423.1406 1226.0313,423.4063 Q1225.8125,423.6563 1225.4219,423.6563 Q1225.0469,423.6563 1224.8125,423.4063 Q1224.5781,423.1406 1224.5781,422.5313 L1224.5781,421.6406 L1220.6094,421.6406 L1220.6094,424.0938 L1222.0938,424.0938 Q1222.0938,423.4375 1222.2188,423.25 Q1222.4844,422.8438 1222.9531,422.8438 Q1223.3281,422.8438 1223.5625,423.1094 Q1223.7969,423.3594 1223.7969,423.9688 L1223.7969,425.9375 Q1223.7969,426.4844 1223.6719,426.6719 Q1223.4063,427.0625 1222.9531,427.0625 Q1222.4844,427.0625 1222.2188,426.6563 Q1222.0938,426.4688 1222.0938,425.7969 L1220.6094,425.7969 Z " fill="#000000"/><text fill="#000000" font-family="sans-serif" font-size="14" lengthAdjust="spacing" textLength="76" x="1242.25" y="430.7969">Reservation</text><line style="stroke:#181818;stroke-width:0.5;" x1="1152.5" x2="1375.5" y1="441" y2="441"/><ellipse cx="1162.5" cy="455.8105" fill="#000000" rx="3" ry="3" style="stroke:#000000;stroke-width:1.0;"/><text fill="#000000" font-family="sans-serif" font-size="14" lengthAdjust="spacing" textLength="182" x="1171.5" y="460.1074">id : number &#171;generated, PK&#187;</text><line style="stroke:#181818;stroke-width:1.0;" x1="1152.5" x2="1375.5" y1="467.6211" y2="467.6211"/><ellipse cx="1162.5" cy="482.4316" fill="#000000" rx="3" ry="3" style="stroke:#000000;stroke-width:1.0;"/><text fill="#000000" font-family="sans-serif" font-size="14" lengthAdjust="spacing" textLength="148" x="1171.5" y="486.7285">table_id : number &#171;FK&#187;</text><ellipse cx="1162.5" cy="501.0527" fill="#000000" rx="3" ry="3" style="stroke:#000000;stroke-width:1.0;"/><text fill="#000000" font-family="sans-serif" font-size="14" lengthAdjust="spacing" textLength="161" x="1171.5" y="505.3496">customer_name : varchar</text><ellipse cx="1162.5" cy="519.6738" fill="#000000" rx="3" ry="3" style="stroke:#000000;stroke-width:1.0;"/><text fill="#000000" font-family="sans-serif" font-size="14" lengthAdjust="spacing" textLength="159" x="1171.5" y="523.9707">customer_email : varchar</text><ellipse cx="1162.5" cy="538.2949" fill="#000000" rx="3" ry="3" style="stroke:#000000;stroke-width:1.0;"/><text fill="#000000" font-family="sans-serif" font-size="14" lengthAdjust="spacing" textLength="154" x="1171.5" y="542.5918">reserved_from: datetime</text><ellipse cx="1162.5" cy="556.916" fill="#000000" rx="3" ry="3" style="stroke:#000000;stroke-width:1.0;"/><text fill="#000000" font-family="sans-serif" font-size="14" lengthAdjust="spacing" textLength="152" x="1171.5" y="561.2129">reserved_until: datetime</text><ellipse cx="1162.5" cy="575.5371" fill="#000000" rx="3" ry="3" style="stroke:#000000;stroke-width:1.0;"/><text fill="#000000" font-family="sans-serif" font-size="14" lengthAdjust="spacing" textLength="150" x="1171.5" y="579.834">guest_amount : number</text><text fill="#000000" font-family="sans-serif" font-size="14" lengthAdjust="spacing" textLength="166" x="1171.5" y="598.4551">customer_phone : varchar</text><text fill="#000000" font-family="sans-serif" font-size="14" lengthAdjust="spacing" textLength="199" x="1171.5" y="617.0762">additional_information : varchar</text></g><!--link Restaurant to Owner--><g id="link_Restaurant_Owner"><path codeLine="64" d="M460.13,136.22 C449.42,153.83 437.79,172.96 426.79,191.04 " fill="none" id="Restaurant-Owner" style="stroke:#181818;stroke-width:1.0;"/><line style="stroke:#181818;stroke-width:1.0;" x1="460.21" x2="459.245" y1="136.0833" y2="126.13"/><line style="stroke:#181818;stroke-width:1.0;" x1="460.21" x2="469.495" y1="136.0833" y2="132.37"/><line style="stroke:#181818;stroke-width:1.0;" x1="460.21" x2="464.37" y1="136.0833" y2="129.25"/><ellipse cx="457.0899" cy="141.2083" fill="none" rx="4" ry="4" style="stroke:#181818;stroke-width:1.0;"/><line style="stroke:#181818;stroke-width:1.0;" x1="427.9467" x2="421.1134" y1="196.8434" y2="192.6833"/><line style="stroke:#181818;stroke-width:1.0;" x1="429.5067" x2="422.6734" y1="194.2809" y2="190.1208"/><line style="stroke:#181818;stroke-width:1.0;" x1="426.61" x2="422.45" y1="191.3467" y2="198.18"/></g><!--link Restaurant to BusinessHour--><g id="link_Restaurant_BusinessHour"><path codeLine="65" d="M389.54,121.9 C347.91,142.21 300.46,166.04 258,189 C254.77,190.75 251.51,192.53 248.23,194.34 " fill="none" id="Restaurant-BusinessHour" style="stroke:#181818;stroke-width:1.0;"/><line style="stroke:#181818;stroke-width:1.0;" x1="391.6208" x2="395.1299" y1="116.4399" y2="123.6292"/><line style="stroke:#181818;stroke-width:1.0;" x1="388.9248" x2="392.4339" y1="117.7558" y2="124.9451"/><line style="stroke:#181818;stroke-width:1.0;" x1="389.7807" x2="396.97" y1="121.7891" y2="118.28"/><line style="stroke:#181818;stroke-width:1.0;" x1="248.0046" x2="243.922" y1="194.4573" y2="203.586"/><line style="stroke:#181818;stroke-width:1.0;" x1="248.0046" x2="238.098" y1="194.4573" y2="193.094"/><line style="stroke:#181818;stroke-width:1.0;" x1="248.0046" x2="241.01" y1="194.4573" y2="198.34"/><ellipse cx="253.2506" cy="191.5452" fill="none" rx="4" ry="4" style="stroke:#181818;stroke-width:1.0;"/></g><!--link Restaurant to Address--><g id="link_Restaurant_Address"><path codeLine="66" d="M541.76,135.48 C551.01,150.58 560.97,166.82 570.64,182.59 " fill="none" id="Restaurant-Address" style="stroke:#181818;stroke-width:1.0;"/><line style="stroke:#181818;stroke-width:1.0;" x1="536.6239" x2="543.4416" y1="134.7516" y2="130.5661"/><line style="stroke:#181818;stroke-width:1.0;" x1="538.1934" x2="545.0112" y1="137.3083" y2="133.1228"/><line style="stroke:#181818;stroke-width:1.0;" x1="542.1255" x2="537.94" y1="136.0678" y2="129.25"/><line style="stroke:#181818;stroke-width:1.0;" x1="575.792" x2="568.9698" y1="183.3398" y2="187.518"/><line style="stroke:#181818;stroke-width:1.0;" x1="574.2252" x2="567.403" y1="180.7815" y2="184.9597"/><line style="stroke:#181818;stroke-width:1.0;" x1="570.2918" x2="574.47" y1="182.0178" y2="188.84"/></g><!--link Restaurant to Table--><g id="link_Restaurant_Table"><path codeLine="68" d="M612.53,117.67 C666.39,141.18 732.11,169.86 791.65,195.84 " fill="none" id="Restaurant-Table" style="stroke:#181818;stroke-width:1.0;"/><line style="stroke:#181818;stroke-width:1.0;" x1="607.1051" x2="610.3064" y1="119.6764" y2="112.3449"/><line style="stroke:#181818;stroke-width:1.0;" x1="609.8545" x2="613.0558" y1="120.8769" y2="113.5454"/><line style="stroke:#181818;stroke-width:1.0;" x1="612.3716" x2="605.04" y1="117.6113" y2="114.41"/><line style="stroke:#181818;stroke-width:1.0;" x1="791.9184" x2="801.651" y1="195.9587" y2="193.6613"/><line style="stroke:#181818;stroke-width:1.0;" x1="791.9184" x2="796.849" y1="195.9587" y2="204.6587"/><line style="stroke:#181818;stroke-width:1.0;" x1="791.9184" x2="799.25" y1="195.9587" y2="199.16"/><ellipse cx="786.4198" cy="193.5577" fill="none" rx="4" ry="4" style="stroke:#181818;stroke-width:1.0;"/></g><!--link Table to Reservation--><g id="link_Table_Reservation"><path codeLine="69" d="M1065.27,354.39 C1088.04,372.32 1111.87,391.21 1134,409 C1137.65,411.93 1141.35,414.92 1145.08,417.94 " fill="none" id="Table-Reservation" style="stroke:#181818;stroke-width:1.0;"/><line style="stroke:#181818;stroke-width:1.0;" x1="1059.5417" x2="1064.4868" y1="354.9668" y2="348.6783"/><line style="stroke:#181818;stroke-width:1.0;" x1="1061.8999" x2="1066.845" y1="356.8212" y2="350.5327"/><line style="stroke:#181818;stroke-width:1.0;" x1="1065.1586" x2="1058.87" y1="354.2951" y2="349.35"/><line style="stroke:#181818;stroke-width:1.0;" x1="1145.178" x2="1155.1707" y1="418.009" y2="418.391"/><line style="stroke:#181818;stroke-width:1.0;" x1="1145.178" x2="1147.6093" y1="418.009" y2="427.709"/><line style="stroke:#181818;stroke-width:1.0;" x1="1145.178" x2="1151.39" y1="418.009" y2="423.05"/><ellipse cx="1140.5191" cy="414.2283" fill="none" rx="4" ry="4" style="stroke:#181818;stroke-width:1.0;"/></g><!--SRC=[jLN1Zjem4BtdA-QyslG3LWYfFLILUcYrwX4fClQ4Z9hOr6D3qRB_th53GfB21Mcv8Fncnc_UF0ze0uKJl2875Rso0TuAaCyJa84NiB7ReeVLQeSMlGfedk7dz_KwnvJb9TGT1Qpc2L-7g2TGndXalXzWLOS27PJNZVB5Ur5WJ-jBPBAI-ir5_mWnFxPr__8Zuc-ZJYCwzBH7MmNAnDBNzBXslfBIw0ygaBDL5BRjF4wtZd6MV-tgHvBhaNPgyXogXLezrAfx27OgavkUxXjdRol-kP_L8-muUCGx91eNHOvBdIMuTpAbjjBEu78AEd5QncidWllJa71jmhg0i7KXk0vSFVRo0gjfoZeLQ0sebXri4IXmSZ3q2Zp3DWOueAVwH7QtiTfvZpeCjvQf10DP9hazD0WivjIOoH1lBCUw9arI3SGda9mhlMl5-6bK-PVQjlXHXhuv04OLUAbkHxRAWBZvJoIFPcdjUOOXJiJDQ7WZF2_cNcZVToZAptFMedhhZfo5osi3WXlgWaOV5DcD3UadGt-D0jwZffhGY5L8T2MRdnHGBQ4Dda1vX3BBZNzLjs_JBswS3o0jY69rVTN-TTBT0nF8rEwBhoEB0h8DRqvXH6yzoZnTePQcu5qtKNU1Pbd-WtTHl56fBjbqFhRnrkMpJw0iPqfQo0CaAmfsmzmdks7ox_3kol9yxbVOzFnyBaltDblOIrZIBY-ok96P3LFqjhaSJIPL_0C0]--></g></svg>