<?xml version="1.0" encoding="us-ascii" standalone="no"?><svg xmlns="http://www.w3.org/2000/svg" xmlns:xlink="http://www.w3.org/1999/xlink" contentStyleType="text/css" height="507px" preserveAspectRatio="none" style="width:519px;height:507px;background:#FFFFFF;" version="1.1" viewBox="0 0 519 507" width="519px" zoomAndPan="magnify"><defs/><g><!--cluster :Benutzer PC--><g id="cluster_:Benutzer PC"><polygon fill="none" points="33,270,43,260,385,260,385,480,375,490,33,490,33,270" style="stroke:#181818;stroke-width:1.0;"/><line style="stroke:#181818;stroke-width:1.0;" x1="375" x2="385" y1="270" y2="260"/><line style="stroke:#181818;stroke-width:1.0;" x1="33" x2="375" y1="270" y2="270"/><line style="stroke:#181818;stroke-width:1.0;" x1="375" x2="375" y1="270" y2="490"/><text fill="#000000" font-family="sans-serif" font-size="14" font-style="italic" lengthAdjust="spacing" textLength="56" x="177" y="288.1074">&#171;device&#187;</text><text fill="#000000" font-family="sans-serif" font-size="14" font-weight="bold" lengthAdjust="spacing" textLength="91" x="159.5" y="306.7285">:Benutzer PC</text></g><!--cluster :API Client--><g id="cluster_:API Client"><polygon fill="none" points="57,339,67,329,361,329,361,456,351,466,57,466,57,339" style="stroke:#181818;stroke-width:1.0;"/><line style="stroke:#181818;stroke-width:1.0;" x1="351" x2="361" y1="339" y2="329"/><line style="stroke:#181818;stroke-width:1.0;" x1="57" x2="351" y1="339" y2="339"/><line style="stroke:#181818;stroke-width:1.0;" x1="351" x2="351" y1="339" y2="466"/><text fill="#000000" font-family="sans-serif" font-size="14" font-style="italic" lengthAdjust="spacing" textLength="157" x="126.5" y="357.1074">&#171;execution environment&#187;</text><text fill="#000000" font-family="sans-serif" font-size="14" font-weight="bold" lengthAdjust="spacing" textLength="71" x="169.5" y="375.7285">:API Client</text></g><!--cluster :Azure Cloud--><g id="cluster_:Azure Cloud"><polygon fill="none" points="16,16,26,6,502,6,502,226,492,236,16,236,16,16" style="stroke:#181818;stroke-width:1.0;"/><line style="stroke:#181818;stroke-width:1.0;" x1="492" x2="502" y1="16" y2="6"/><line style="stroke:#181818;stroke-width:1.0;" x1="16" x2="492" y1="16" y2="16"/><line style="stroke:#181818;stroke-width:1.0;" x1="492" x2="492" y1="16" y2="236"/><text fill="#000000" font-family="sans-serif" font-size="14" font-style="italic" lengthAdjust="spacing" textLength="50" x="230" y="34.1074">&#171;cloud&#187;</text><text fill="#000000" font-family="sans-serif" font-size="14" font-weight="bold" lengthAdjust="spacing" textLength="89" x="210.5" y="52.7285">:Azure Cloud</text></g><!--cluster :Azure Server (DB)--><g id="cluster_:Azure Server (DB)"><polygon fill="none" points="272,85,282,75,478,75,478,202,468,212,272,212,272,85" style="stroke:#181818;stroke-width:1.0;"/><line style="stroke:#181818;stroke-width:1.0;" x1="468" x2="478" y1="85" y2="75"/><line style="stroke:#181818;stroke-width:1.0;" x1="272" x2="468" y1="85" y2="85"/><line style="stroke:#181818;stroke-width:1.0;" x1="468" x2="468" y1="85" y2="212"/><text fill="#000000" font-family="sans-serif" font-size="14" font-style="italic" lengthAdjust="spacing" textLength="56" x="343" y="103.1074">&#171;device&#187;</text><text fill="#000000" font-family="sans-serif" font-size="14" font-weight="bold" lengthAdjust="spacing" textLength="130" x="306" y="121.7285">:Azure Server (DB)</text></g><!--cluster :Azure Server (VM)--><g id="cluster_:Azure Server (VM)"><polygon fill="none" points="40,85,50,75,248,75,248,202,238,212,40,212,40,85" style="stroke:#181818;stroke-width:1.0;"/><line style="stroke:#181818;stroke-width:1.0;" x1="238" x2="248" y1="85" y2="75"/><line style="stroke:#181818;stroke-width:1.0;" x1="40" x2="238" y1="85" y2="85"/><line style="stroke:#181818;stroke-width:1.0;" x1="238" x2="238" y1="85" y2="212"/><text fill="#000000" font-family="sans-serif" font-size="14" font-style="italic" lengthAdjust="spacing" textLength="56" x="112" y="103.1074">&#171;device&#187;</text><text fill="#000000" font-family="sans-serif" font-size="14" font-weight="bold" lengthAdjust="spacing" textLength="132" x="74" y="121.7285">:Azure Server (VM)</text></g><!--entity curl--><g id="elem_curl"><rect fill="#F1F1F1" height="60.2422" rx="2.5" ry="2.5" style="stroke:#181818;stroke-width:0.5;" width="89" x="255.5" y="390"/><polygon fill="#F1F1F1" points="327.5,395,327.5,409,339.5,409,339.5,401,333.5,395,327.5,395" style="stroke:#181818;stroke-width:0.5;"/><line style="stroke:#181818;stroke-width:0.5;" x1="333.5" x2="333.5" y1="395" y2="401"/><line style="stroke:#181818;stroke-width:0.5;" x1="339.5" x2="333.5" y1="401" y2="401"/><text fill="#000000" font-family="sans-serif" font-size="14" font-style="italic" lengthAdjust="spacing" textLength="59" x="265.5" y="418.1074">&#171;artifact&#187;</text><text fill="#000000" font-family="sans-serif" font-size="14" lengthAdjust="spacing" textLength="23" x="283.5" y="436.7285">curl</text></g><!--entity requests--><g id="elem_requests"><rect fill="#F1F1F1" height="60.2422" rx="2.5" ry="2.5" style="stroke:#181818;stroke-width:0.5;" width="147" x="73.5" y="390"/><polygon fill="#F1F1F1" points="203.5,395,203.5,409,215.5,409,215.5,401,209.5,395,203.5,395" style="stroke:#181818;stroke-width:0.5;"/><line style="stroke:#181818;stroke-width:0.5;" x1="209.5" x2="209.5" y1="395" y2="401"/><line style="stroke:#181818;stroke-width:0.5;" x1="215.5" x2="209.5" y1="401" y2="401"/><text fill="#000000" font-family="sans-serif" font-size="14" font-style="italic" lengthAdjust="spacing" textLength="59" x="112.5" y="418.1074">&#171;artifact&#187;</text><text fill="#000000" font-family="sans-serif" font-size="14" lengthAdjust="spacing" textLength="117" x="83.5" y="436.7285">Requests (python)</text></g><!--entity postgres--><g id="elem_postgres"><rect fill="#F1F1F1" height="60.2422" rx="2.5" ry="2.5" style="stroke:#181818;stroke-width:0.5;" width="151" x="288.5" y="136"/><polygon fill="#F1F1F1" points="422.5,141,422.5,155,434.5,155,434.5,147,428.5,141,422.5,141" style="stroke:#181818;stroke-width:0.5;"/><line style="stroke:#181818;stroke-width:0.5;" x1="428.5" x2="428.5" y1="141" y2="147"/><line style="stroke:#181818;stroke-width:0.5;" x1="434.5" x2="428.5" y1="147" y2="147"/><text fill="#000000" font-family="sans-serif" font-size="14" font-style="italic" lengthAdjust="spacing" textLength="59" x="329.5" y="164.1074">&#171;artifact&#187;</text><text fill="#000000" font-family="sans-serif" font-size="14" lengthAdjust="spacing" textLength="121" x="298.5" y="182.7285">:Azure PostgreSQL</text></g><!--entity reservationsapi--><g id="elem_reservationsapi"><rect fill="#F1F1F1" height="60.2422" rx="2.5" ry="2.5" style="stroke:#181818;stroke-width:0.5;" width="138" x="94" y="136"/><polygon fill="#F1F1F1" points="215,141,215,155,227,155,227,147,221,141,215,141" style="stroke:#181818;stroke-width:0.5;"/><line style="stroke:#181818;stroke-width:0.5;" x1="221" x2="221" y1="141" y2="147"/><line style="stroke:#181818;stroke-width:0.5;" x1="227" x2="221" y1="147" y2="147"/><text fill="#000000" font-family="sans-serif" font-size="14" font-style="italic" lengthAdjust="spacing" textLength="59" x="128.5" y="164.1074">&#171;artifact&#187;</text><text fill="#000000" font-family="sans-serif" font-size="14" lengthAdjust="spacing" textLength="108" x="104" y="182.7285">:ReservationsAPI</text></g><!--reverse link reservationsapi to curl--><g id="link_reservationsapi_curl"><path d="M181.97,200.41 C194.56,215.22 209.92,233.48 221,252 C247.84,296.85 266.26,355.26 280.57,389.79 " fill="none" id="reservationsapi-backto-curl" style="stroke:#181818;stroke-width:1.0;"/><polygon fill="#181818" points="178.49,196.32,181.2515,205.7738,181.7204,200.1364,187.3577,200.6052,178.49,196.32" style="stroke:#181818;stroke-width:1.0;"/></g><!--link reservationsapi to curl--><g id="link_reservationsapi_curl"><path d="M209.89,196.32 C226.64,211.79 243.87,231.73 256,252 C281.58,294.75 299.52,349.82 304.82,384.78 " fill="none" id="reservationsapi-to-curl" style="stroke:#181818;stroke-width:1.0;stroke-dasharray:7.0,7.0;"/><polygon fill="#181818" points="305.51,389.79,308.2391,380.3268,304.8249,384.8372,300.3145,381.423,305.51,389.79" style="stroke:#181818;stroke-width:1.0;"/></g><!--reverse link reservationsapi to requests--><g id="link_reservationsapi_requests"><path d="M151.73,201.39 C143.5,251.31 137.86,342.96 140.33,389.79 " fill="none" id="reservationsapi-backto-requests" style="stroke:#181818;stroke-width:1.0;"/><polygon fill="#181818" points="152.59,196.4,147.1301,204.5969,151.7472,201.3285,155.0157,205.9455,152.59,196.4" style="stroke:#181818;stroke-width:1.0;"/></g><!--link reservationsapi to requests--><g id="link_reservationsapi_requests"><path d="M170.18,196.4 C172.95,243.35 167.31,335 158.77,384.81 " fill="none" id="reservationsapi-to-requests" style="stroke:#181818;stroke-width:1.0;stroke-dasharray:7.0,7.0;"/><polygon fill="#181818" points="157.88,389.79,163.39,381.6267,158.753,384.8668,155.5129,380.2298,157.88,389.79" style="stroke:#181818;stroke-width:1.0;"/></g><!--link reservationsapi to postgres--><g id="link_reservationsapi_postgres"><path d="M232.09,186.3 C249.06,188.68 266.03,189.13 282.99,187.65 " fill="none" id="reservationsapi-to-postgres" style="stroke:#181818;stroke-width:1.0;"/><polygon fill="#181818" points="288.26,187.13,278.9146,184.0215,283.2836,187.6148,279.6903,191.9838,288.26,187.13" style="stroke:#181818;stroke-width:1.0;"/></g><!--reverse link reservationsapi to postgres--><g id="link_reservationsapi_postgres"><path d="M237.36,145.02 C254.33,143.05 271.29,142.99 288.26,144.87 " fill="none" id="reservationsapi-backto-postgres" style="stroke:#181818;stroke-width:1.0;stroke-dasharray:7.0,7.0;"/><polygon fill="#181818" points="232.09,145.7,241.5297,148.5093,237.0485,145.057,240.5008,140.5758,232.09,145.7" style="stroke:#181818;stroke-width:1.0;"/></g><!--SRC=[bP7BQiCm44Nt_eh1coOBs_iG34cwARJW9j2zaAQ9G9PKFKoJad-lbDWEhLnejDBZt9cvLmy7vxHTL9KMH3hVYfAgjcAeXJgsA5t1EDaRqcQPL0mXNwnHUdT20yqcX-MIOSSfrZLyPH1M3wsQ9zW87lIHmK-atd4b0MN7ZPAny2Y9YnZ7tmbra5DlHDGCDm4Z5kBj1Bp53u_MMPZfepieEK-LfaSkwdDs7dsiJjvW659v5bKqRX8R5sQ7fWj-Pu_h-OJZdnFraaPPjpUuUtrE9zBNjs6YFzkzlVoZtHPjm4aCruRGf_pV0ABvBOOOAHI-g1FarnbALjRN7yY6DEyGZX-GF1Scr1ZJ63PGYZ8j_Gq0]--></g></svg>