<?xml version="1.0" encoding="us-ascii" standalone="no"?><svg xmlns="http://www.w3.org/2000/svg" xmlns:xlink="http://www.w3.org/1999/xlink" contentStyleType="text/css" height="1028px" preserveAspectRatio="none" style="width:1163px;height:1028px;background:#FFFFFF;" version="1.1" viewBox="0 0 1163 1028" width="1163px" zoomAndPan="magnify"><defs/><g><!--cluster api--><g id="cluster_api"><path d="M8.5,158.0137 L30.5,158.0137 A3.75,3.75 0 0 1 33,160.5137 L40,182.6348 L1153.5,182.6348 A2.5,2.5 0 0 1 1156,185.1348 L1156,1018.5137 A2.5,2.5 0 0 1 1153.5,1021.0137 L8.5,1021.0137 A2.5,2.5 0 0 1 6,1018.5137 L6,160.5137 A2.5,2.5 0 0 1 8.5,158.0137 " fill="none" style="stroke:#000000;stroke-width:1.5;"/><line style="stroke:#000000;stroke-width:1.5;" x1="6" x2="40" y1="182.6348" y2="182.6348"/><text fill="#000000" font-family="sans-serif" font-size="14" font-weight="bold" lengthAdjust="spacing" textLength="21" x="10" y="175.1211">api</text></g><!--cluster ownersModule--><g id="cluster_ownersModule"><path d="M32.5,203.0137 L85.5,203.0137 A3.75,3.75 0 0 1 88,205.5137 L95,227.6348 L1129.5,227.6348 A2.5,2.5 0 0 1 1132,230.1348 L1132,773.5137 A2.5,2.5 0 0 1 1129.5,776.0137 L32.5,776.0137 A2.5,2.5 0 0 1 30,773.5137 L30,205.5137 A2.5,2.5 0 0 1 32.5,203.0137 " fill="none" style="stroke:#000000;stroke-width:1.5;"/><line style="stroke:#000000;stroke-width:1.5;" x1="30" x2="95" y1="227.6348" y2="227.6348"/><text fill="#000000" font-family="sans-serif" font-size="14" font-weight="bold" lengthAdjust="spacing" textLength="52" x="34" y="220.1211">owners</text></g><!--cluster ownerModels--><g id="cluster_ownerModels"><path d="M56.5,248.0137 L153.5,248.0137 A3.75,3.75 0 0 1 156,250.5137 L163,272.6348 L1105.5,272.6348 A2.5,2.5 0 0 1 1108,275.1348 L1108,458.5137 A2.5,2.5 0 0 1 1105.5,461.0137 L56.5,461.0137 A2.5,2.5 0 0 1 54,458.5137 L54,250.5137 A2.5,2.5 0 0 1 56.5,248.0137 " fill="none" style="stroke:#000000;stroke-width:1.5;"/><line style="stroke:#000000;stroke-width:1.5;" x1="54" x2="163" y1="272.6348" y2="272.6348"/><text fill="#000000" font-family="sans-serif" font-size="14" font-weight="bold" lengthAdjust="spacing" textLength="96" x="58" y="265.1211">ownerModels</text></g><!--cluster restaurantModule--><g id="cluster_restaurantModule"><path d="M270.5,827.0137 L352.5,827.0137 A3.75,3.75 0 0 1 355,829.5137 L362,851.6348 L454.5,851.6348 A2.5,2.5 0 0 1 457,854.1348 L457,994.5137 A2.5,2.5 0 0 1 454.5,997.0137 L270.5,997.0137 A2.5,2.5 0 0 1 268,994.5137 L268,829.5137 A2.5,2.5 0 0 1 270.5,827.0137 " fill="none" style="stroke:#000000;stroke-width:1.5;"/><line style="stroke:#000000;stroke-width:1.5;" x1="268" x2="362" y1="851.6348" y2="851.6348"/><text fill="#000000" font-family="sans-serif" font-size="14" font-weight="bold" lengthAdjust="spacing" textLength="81" x="272" y="844.1211">restaurants</text></g><!--cluster restaurantModels--><g id="cluster_restaurantModels"><path d="M294.5,872.0137 L420.5,872.0137 A3.75,3.75 0 0 1 423,874.5137 L430,896.6348 L430.5,896.6348 A2.5,2.5 0 0 1 433,899.1348 L433,970.5137 A2.5,2.5 0 0 1 430.5,973.0137 L294.5,973.0137 A2.5,2.5 0 0 1 292,970.5137 L292,874.5137 A2.5,2.5 0 0 1 294.5,872.0137 " fill="none" style="stroke:#000000;stroke-width:1.5;"/><line style="stroke:#000000;stroke-width:1.5;" x1="292" x2="430" y1="896.6348" y2="896.6348"/><text fill="#000000" font-family="sans-serif" font-size="14" font-weight="bold" lengthAdjust="spacing" textLength="125" x="296" y="889.1211">restaurantModels</text></g><!--cluster pydantic--><g id="cluster_pydantic"><path d="M519.5,6.0137 L579.5,6.0137 A3.75,3.75 0 0 1 582,8.5137 L589,30.6348 L648.5,30.6348 A2.5,2.5 0 0 1 651,33.1348 L651,104.5137 A2.5,2.5 0 0 1 648.5,107.0137 L519.5,107.0137 A2.5,2.5 0 0 1 517,104.5137 L517,8.5137 A2.5,2.5 0 0 1 519.5,6.0137 " fill="none" style="stroke:#000000;stroke-width:1.5;"/><line style="stroke:#000000;stroke-width:1.5;" x1="517" x2="589" y1="30.6348" y2="30.6348"/><text fill="#000000" font-family="sans-serif" font-size="14" font-weight="bold" lengthAdjust="spacing" textLength="59" x="521" y="23.1211">pydantic</text></g><!--cluster db--><g id="cluster_db"><path d="M819.5,6.0137 L838.5,6.0137 A3.75,3.75 0 0 1 841,8.5137 L848,30.6348 L958.5,30.6348 A2.5,2.5 0 0 1 961,33.1348 L961,104.5137 A2.5,2.5 0 0 1 958.5,107.0137 L819.5,107.0137 A2.5,2.5 0 0 1 817,104.5137 L817,8.5137 A2.5,2.5 0 0 1 819.5,6.0137 " fill="none" style="stroke:#000000;stroke-width:1.5;"/><line style="stroke:#000000;stroke-width:1.5;" x1="817" x2="848" y1="30.6348" y2="30.6348"/><text fill="#000000" font-family="sans-serif" font-size="14" font-weight="bold" lengthAdjust="spacing" textLength="18" x="821" y="23.1211">db</text></g><!--class owners--><g id="elem_owners"><rect codeLine="39" fill="#F1F1F1" height="234.2109" id="owners" rx="2.5" ry="2.5" style="stroke:#181818;stroke-width:0.5;" width="631" x="46.5" y="526.0137"/><ellipse cx="335.25" cy="542.0137" fill="#ADD1B2" rx="11" ry="11" style="stroke:#181818;stroke-width:1.0;"/><path d="M338.0156,537.8887 Q338.1719,537.6699 338.3594,537.5605 Q338.5469,537.4512 338.7656,537.4512 Q339.1406,537.4512 339.375,537.7168 Q339.6094,537.9668 339.6094,538.5762 L339.6094,540.0293 Q339.6094,540.6387 339.375,540.9043 Q339.1406,541.1699 338.7656,541.1699 Q338.4219,541.1699 338.2188,540.9668 Q338.0156,540.7793 337.9063,540.2637 Q337.8594,539.9043 337.6719,539.7168 Q337.3438,539.3418 336.7344,539.123 Q336.125,538.9043 335.5,538.9043 Q334.7344,538.9043 334.0938,539.2324 Q333.4688,539.5605 332.9688,540.3105 Q332.4844,541.0605 332.4844,542.0918 L332.4844,543.1855 Q332.4844,544.4199 333.375,545.248 Q334.2656,546.0605 335.8594,546.0605 Q336.7969,546.0605 337.4531,545.8105 Q337.8438,545.6543 338.2656,545.2168 Q338.5313,544.9512 338.6719,544.873 Q338.8281,544.7949 339.0313,544.7949 Q339.3594,544.7949 339.6094,545.0605 Q339.875,545.3105 339.875,545.6543 Q339.875,545.998 339.5313,546.4043 Q339.0313,546.9824 338.2344,547.3105 Q337.1563,547.7637 335.8594,547.7637 Q334.3438,547.7637 333.1406,547.1387 Q332.1563,546.6387 331.4688,545.5762 Q330.7813,544.498 330.7813,543.2168 L330.7813,542.0605 Q330.7813,540.7324 331.3906,539.5918 Q332.0156,538.4355 333.1094,537.8262 Q334.2031,537.2012 335.4375,537.2012 Q336.1719,537.2012 336.8125,537.373 Q337.4688,537.5293 338.0156,537.8887 Z " fill="#000000"/><text fill="#000000" font-family="sans-serif" font-size="14" lengthAdjust="spacing" textLength="45" x="355.75" y="547.8105">owners</text><line style="stroke:#181818;stroke-width:0.5;" x1="47.5" x2="676.5" y1="558.0137" y2="558.0137"/><line style="stroke:#181818;stroke-width:0.5;" x1="47.5" x2="676.5" y1="566.0137" y2="566.0137"/><text fill="#000000" font-family="sans-serif" font-size="14" lengthAdjust="spacing" textLength="345" x="52.5" y="585.1211">get_owners(owner_query: OwnerQuery) -&gt; List[Owner]</text><text fill="#000000" font-family="sans-serif" font-size="14" lengthAdjust="spacing" textLength="222" x="52.5" y="603.7422">get_owner(owner_id: int ) -&gt; Owner</text><text fill="#000000" font-family="sans-serif" font-size="14" lengthAdjust="spacing" textLength="378" x="52.5" y="622.3633">create_owners(new_owners: List[OwnerNew]) -&gt; List[Owner]</text><text fill="#000000" font-family="sans-serif" font-size="14" lengthAdjust="spacing" textLength="392" x="52.5" y="640.9844">create_owner(owner_id: int, new_owner: OwnerNew) -&gt; Owner</text><text fill="#000000" font-family="sans-serif" font-size="14" lengthAdjust="spacing" textLength="416" x="52.5" y="659.6055">update_owners(owners_to_update: List[OwnerPut]) -&gt; List[Owner]</text><text fill="#000000" font-family="sans-serif" font-size="14" lengthAdjust="spacing" textLength="549" x="52.5" y="678.2266">update_owner(owner_id: int, owner_to_update: Union[OwnerPut, OwnerNew]) -&gt; Owner</text><text fill="#000000" font-family="sans-serif" font-size="14" lengthAdjust="spacing" textLength="194" x="52.5" y="696.8477">delete_owners() -&gt; List[Owner]</text><text fill="#000000" font-family="sans-serif" font-size="14" lengthAdjust="spacing" textLength="237" x="52.5" y="715.4688">delete_owner(owner_id: int) -&gt; Owner</text><text fill="#000000" font-family="sans-serif" font-size="14" lengthAdjust="spacing" textLength="578" x="52.5" y="734.0898">create_restaurants(owner_id: int, new_restaurants: List[RestaurantNew]) -&gt; List[Restaurant]</text><text fill="#000000" font-family="sans-serif" font-size="14" lengthAdjust="spacing" textLength="619" x="52.5" y="752.7109">create_restaurant(owner_id: int, restaurant_id: int, new_restaurant: RestaurantNew) -&gt; Restaurant</text></g><!--class OwnerNew--><g id="elem_OwnerNew"><rect codeLine="6" fill="#F1F1F1" height="159.7266" id="OwnerNew" rx="2.5" ry="2.5" style="stroke:#181818;stroke-width:0.5;" width="176" x="668" y="285.0137"/><ellipse cx="718.25" cy="301.0137" fill="#ADD1B2" rx="11" ry="11" style="stroke:#181818;stroke-width:1.0;"/><path d="M721.0156,296.8887 Q721.1719,296.6699 721.3594,296.5605 Q721.5469,296.4512 721.7656,296.4512 Q722.1406,296.4512 722.375,296.7168 Q722.6094,296.9668 722.6094,297.5762 L722.6094,299.0293 Q722.6094,299.6387 722.375,299.9043 Q722.1406,300.1699 721.7656,300.1699 Q721.4219,300.1699 721.2188,299.9668 Q721.0156,299.7793 720.9063,299.2637 Q720.8594,298.9043 720.6719,298.7168 Q720.3438,298.3418 719.7344,298.123 Q719.125,297.9043 718.5,297.9043 Q717.7344,297.9043 717.0938,298.2324 Q716.4688,298.5605 715.9688,299.3105 Q715.4844,300.0605 715.4844,301.0918 L715.4844,302.1855 Q715.4844,303.4199 716.375,304.248 Q717.2656,305.0605 718.8594,305.0605 Q719.7969,305.0605 720.4531,304.8105 Q720.8438,304.6543 721.2656,304.2168 Q721.5313,303.9512 721.6719,303.873 Q721.8281,303.7949 722.0313,303.7949 Q722.3594,303.7949 722.6094,304.0605 Q722.875,304.3105 722.875,304.6543 Q722.875,304.998 722.5313,305.4043 Q722.0313,305.9824 721.2344,306.3105 Q720.1563,306.7637 718.8594,306.7637 Q717.3438,306.7637 716.1406,306.1387 Q715.1563,305.6387 714.4688,304.5762 Q713.7813,303.498 713.7813,302.2168 L713.7813,301.0605 Q713.7813,299.7324 714.3906,298.5918 Q715.0156,297.4355 716.1094,296.8262 Q717.2031,296.2012 718.4375,296.2012 Q719.1719,296.2012 719.8125,296.373 Q720.4688,296.5293 721.0156,296.8887 Z " fill="#000000"/><text fill="#000000" font-family="sans-serif" font-size="14" lengthAdjust="spacing" textLength="67" x="738.75" y="306.8105">OwnerNew</text><line style="stroke:#181818;stroke-width:0.5;" x1="669" x2="843" y1="317.0137" y2="317.0137"/><text fill="#000000" font-family="sans-serif" font-size="14" lengthAdjust="spacing" textLength="90" x="674" y="336.1211">first_name: str</text><text fill="#000000" font-family="sans-serif" font-size="14" lengthAdjust="spacing" textLength="89" x="674" y="354.7422">last_name: str</text><text fill="#000000" font-family="sans-serif" font-size="14" lengthAdjust="spacing" textLength="57" x="674" y="373.3633">email: str</text><text fill="#000000" font-family="sans-serif" font-size="14" lengthAdjust="spacing" textLength="125" x="674" y="391.9844">phone: Optional[str]</text><line style="stroke:#181818;stroke-width:0.5;" x1="669" x2="843" y1="399.498" y2="399.498"/><text fill="#000000" font-family="sans-serif" font-size="14" lengthAdjust="spacing" textLength="102" x="674" y="418.6055">cast_to_model()</text><text fill="#000000" font-family="sans-serif" font-size="14" lengthAdjust="spacing" textLength="164" x="674" y="437.2266">cast_to_put(owner_id: int)</text></g><!--class Owner--><g id="elem_Owner"><rect codeLine="14" fill="#F1F1F1" height="159.7266" id="Owner" rx="2.5" ry="2.5" style="stroke:#181818;stroke-width:0.5;" width="354" x="70" y="285.0137"/><ellipse cx="222.25" cy="301.0137" fill="#ADD1B2" rx="11" ry="11" style="stroke:#181818;stroke-width:1.0;"/><path d="M225.0156,296.8887 Q225.1719,296.6699 225.3594,296.5605 Q225.5469,296.4512 225.7656,296.4512 Q226.1406,296.4512 226.375,296.7168 Q226.6094,296.9668 226.6094,297.5762 L226.6094,299.0293 Q226.6094,299.6387 226.375,299.9043 Q226.1406,300.1699 225.7656,300.1699 Q225.4219,300.1699 225.2188,299.9668 Q225.0156,299.7793 224.9063,299.2637 Q224.8594,298.9043 224.6719,298.7168 Q224.3438,298.3418 223.7344,298.123 Q223.125,297.9043 222.5,297.9043 Q221.7344,297.9043 221.0938,298.2324 Q220.4688,298.5605 219.9688,299.3105 Q219.4844,300.0605 219.4844,301.0918 L219.4844,302.1855 Q219.4844,303.4199 220.375,304.248 Q221.2656,305.0605 222.8594,305.0605 Q223.7969,305.0605 224.4531,304.8105 Q224.8438,304.6543 225.2656,304.2168 Q225.5313,303.9512 225.6719,303.873 Q225.8281,303.7949 226.0313,303.7949 Q226.3594,303.7949 226.6094,304.0605 Q226.875,304.3105 226.875,304.6543 Q226.875,304.998 226.5313,305.4043 Q226.0313,305.9824 225.2344,306.3105 Q224.1563,306.7637 222.8594,306.7637 Q221.3438,306.7637 220.1406,306.1387 Q219.1563,305.6387 218.4688,304.5762 Q217.7813,303.498 217.7813,302.2168 L217.7813,301.0605 Q217.7813,299.7324 218.3906,298.5918 Q219.0156,297.4355 220.1094,296.8262 Q221.2031,296.2012 222.4375,296.2012 Q223.1719,296.2012 223.8125,296.373 Q224.4688,296.5293 225.0156,296.8887 Z " fill="#000000"/><text fill="#000000" font-family="sans-serif" font-size="14" lengthAdjust="spacing" textLength="41" x="242.75" y="306.8105">Owner</text><line style="stroke:#181818;stroke-width:0.5;" x1="71" x2="423" y1="317.0137" y2="317.0137"/><text fill="#000000" font-family="sans-serif" font-size="14" lengthAdjust="spacing" textLength="34" x="76" y="336.1211">id: int</text><text fill="#000000" font-family="sans-serif" font-size="14" lengthAdjust="spacing" textLength="90" x="76" y="354.7422">first_name: str</text><text fill="#000000" font-family="sans-serif" font-size="14" lengthAdjust="spacing" textLength="89" x="76" y="373.3633">last_name: str</text><text fill="#000000" font-family="sans-serif" font-size="14" lengthAdjust="spacing" textLength="57" x="76" y="391.9844">email: str</text><text fill="#000000" font-family="sans-serif" font-size="14" lengthAdjust="spacing" textLength="125" x="76" y="410.6055">phone: Optional[str]</text><line style="stroke:#181818;stroke-width:0.5;" x1="71" x2="423" y1="418.1191" y2="418.1191"/><text fill="#000000" font-family="sans-serif" font-size="14" lengthAdjust="spacing" textLength="342" x="76" y="437.2266">cast_from_model(owner_model: OwnerModel) &#171;static&#187;</text></g><!--class OwnerPut--><g id="elem_OwnerPut"><rect codeLine="22" fill="#F1F1F1" height="159.7266" id="OwnerPut" rx="2.5" ry="2.5" style="stroke:#181818;stroke-width:0.5;" width="137" x="954.5" y="285.0137"/><ellipse cx="988.85" cy="301.0137" fill="#ADD1B2" rx="11" ry="11" style="stroke:#181818;stroke-width:1.0;"/><path d="M991.6156,296.8887 Q991.7719,296.6699 991.9594,296.5605 Q992.1469,296.4512 992.3656,296.4512 Q992.7406,296.4512 992.975,296.7168 Q993.2094,296.9668 993.2094,297.5762 L993.2094,299.0293 Q993.2094,299.6387 992.975,299.9043 Q992.7406,300.1699 992.3656,300.1699 Q992.0219,300.1699 991.8188,299.9668 Q991.6156,299.7793 991.5063,299.2637 Q991.4594,298.9043 991.2719,298.7168 Q990.9438,298.3418 990.3344,298.123 Q989.725,297.9043 989.1,297.9043 Q988.3344,297.9043 987.6938,298.2324 Q987.0688,298.5605 986.5688,299.3105 Q986.0844,300.0605 986.0844,301.0918 L986.0844,302.1855 Q986.0844,303.4199 986.975,304.248 Q987.8656,305.0605 989.4594,305.0605 Q990.3969,305.0605 991.0531,304.8105 Q991.4438,304.6543 991.8656,304.2168 Q992.1313,303.9512 992.2719,303.873 Q992.4281,303.7949 992.6313,303.7949 Q992.9594,303.7949 993.2094,304.0605 Q993.475,304.3105 993.475,304.6543 Q993.475,304.998 993.1313,305.4043 Q992.6313,305.9824 991.8344,306.3105 Q990.7563,306.7637 989.4594,306.7637 Q987.9438,306.7637 986.7406,306.1387 Q985.7563,305.6387 985.0688,304.5762 Q984.3813,303.498 984.3813,302.2168 L984.3813,301.0605 Q984.3813,299.7324 984.9906,298.5918 Q985.6156,297.4355 986.7094,296.8262 Q987.8031,296.2012 989.0375,296.2012 Q989.7719,296.2012 990.4125,296.373 Q991.0688,296.5293 991.6156,296.8887 Z " fill="#000000"/><text fill="#000000" font-family="sans-serif" font-size="14" lengthAdjust="spacing" textLength="62" x="1007.15" y="306.8105">OwnerPut</text><line style="stroke:#181818;stroke-width:0.5;" x1="955.5" x2="1090.5" y1="317.0137" y2="317.0137"/><text fill="#000000" font-family="sans-serif" font-size="14" lengthAdjust="spacing" textLength="34" x="960.5" y="336.1211">id: int</text><text fill="#000000" font-family="sans-serif" font-size="14" lengthAdjust="spacing" textLength="90" x="960.5" y="354.7422">first_name: str</text><text fill="#000000" font-family="sans-serif" font-size="14" lengthAdjust="spacing" textLength="89" x="960.5" y="373.3633">last_name: str</text><text fill="#000000" font-family="sans-serif" font-size="14" lengthAdjust="spacing" textLength="57" x="960.5" y="391.9844">email: str</text><text fill="#000000" font-family="sans-serif" font-size="14" lengthAdjust="spacing" textLength="125" x="960.5" y="410.6055">phone: Optional[str]</text><line style="stroke:#181818;stroke-width:0.5;" x1="955.5" x2="1090.5" y1="418.1191" y2="418.1191"/><text fill="#000000" font-family="sans-serif" font-size="14" lengthAdjust="spacing" textLength="102" x="960.5" y="437.2266">cast_to_model()</text></g><!--class OwnerQuery--><g id="elem_OwnerQuery"><rect codeLine="30" fill="#F1F1F1" height="122.4844" id="OwnerQuery" rx="2.5" ry="2.5" style="stroke:#181818;stroke-width:0.5;" width="173" x="459.5" y="304.0137"/><ellipse cx="501.95" cy="320.0137" fill="#ADD1B2" rx="11" ry="11" style="stroke:#181818;stroke-width:1.0;"/><path d="M504.7156,315.8887 Q504.8719,315.6699 505.0594,315.5605 Q505.2469,315.4512 505.4656,315.4512 Q505.8406,315.4512 506.075,315.7168 Q506.3094,315.9668 506.3094,316.5762 L506.3094,318.0293 Q506.3094,318.6387 506.075,318.9043 Q505.8406,319.1699 505.4656,319.1699 Q505.1219,319.1699 504.9188,318.9668 Q504.7156,318.7793 504.6063,318.2637 Q504.5594,317.9043 504.3719,317.7168 Q504.0438,317.3418 503.4344,317.123 Q502.825,316.9043 502.2,316.9043 Q501.4344,316.9043 500.7938,317.2324 Q500.1688,317.5605 499.6688,318.3105 Q499.1844,319.0605 499.1844,320.0918 L499.1844,321.1855 Q499.1844,322.4199 500.075,323.248 Q500.9656,324.0605 502.5594,324.0605 Q503.4969,324.0605 504.1531,323.8105 Q504.5438,323.6543 504.9656,323.2168 Q505.2313,322.9512 505.3719,322.873 Q505.5281,322.7949 505.7313,322.7949 Q506.0594,322.7949 506.3094,323.0605 Q506.575,323.3105 506.575,323.6543 Q506.575,323.998 506.2313,324.4043 Q505.7313,324.9824 504.9344,325.3105 Q503.8563,325.7637 502.5594,325.7637 Q501.0438,325.7637 499.8406,325.1387 Q498.8563,324.6387 498.1688,323.5762 Q497.4813,322.498 497.4813,321.2168 L497.4813,320.0605 Q497.4813,318.7324 498.0906,317.5918 Q498.7156,316.4355 499.8094,315.8262 Q500.9031,315.2012 502.1375,315.2012 Q502.8719,315.2012 503.5125,315.373 Q504.1688,315.5293 504.7156,315.8887 Z " fill="#000000"/><text fill="#000000" font-family="sans-serif" font-size="14" lengthAdjust="spacing" textLength="80" x="522.05" y="325.8105">OwnerQuery</text><line style="stroke:#181818;stroke-width:0.5;" x1="460.5" x2="631.5" y1="336.0137" y2="336.0137"/><text fill="#000000" font-family="sans-serif" font-size="14" lengthAdjust="spacing" textLength="151" x="465.5" y="355.1211">first_name: Optional[str]</text><text fill="#000000" font-family="sans-serif" font-size="14" lengthAdjust="spacing" textLength="150" x="465.5" y="373.7422">last_name: Optional[str]</text><text fill="#000000" font-family="sans-serif" font-size="14" lengthAdjust="spacing" textLength="161" x="465.5" y="392.3633">email_name: Optional[str]</text><text fill="#000000" font-family="sans-serif" font-size="14" lengthAdjust="spacing" textLength="125" x="465.5" y="410.9844">phone: Optional[str]</text><line style="stroke:#181818;stroke-width:0.5;" x1="460.5" x2="631.5" y1="418.498" y2="418.498"/></g><!--class Restaurant--><g id="elem_Restaurant"><rect codeLine="57" fill="#F1F1F1" height="48" id="Restaurant" rx="2.5" ry="2.5" style="stroke:#181818;stroke-width:0.5;" width="102" x="311" y="909.0137"/><ellipse cx="326" cy="925.0137" fill="#ADD1B2" rx="11" ry="11" style="stroke:#181818;stroke-width:1.0;"/><path d="M328.7656,920.8887 Q328.9219,920.6699 329.1094,920.5605 Q329.2969,920.4512 329.5156,920.4512 Q329.8906,920.4512 330.125,920.7168 Q330.3594,920.9668 330.3594,921.5762 L330.3594,923.0293 Q330.3594,923.6387 330.125,923.9043 Q329.8906,924.1699 329.5156,924.1699 Q329.1719,924.1699 328.9688,923.9668 Q328.7656,923.7793 328.6563,923.2637 Q328.6094,922.9043 328.4219,922.7168 Q328.0938,922.3418 327.4844,922.123 Q326.875,921.9043 326.25,921.9043 Q325.4844,921.9043 324.8438,922.2324 Q324.2188,922.5605 323.7188,923.3105 Q323.2344,924.0605 323.2344,925.0918 L323.2344,926.1855 Q323.2344,927.4199 324.125,928.248 Q325.0156,929.0605 326.6094,929.0605 Q327.5469,929.0605 328.2031,928.8105 Q328.5938,928.6543 329.0156,928.2168 Q329.2813,927.9512 329.4219,927.873 Q329.5781,927.7949 329.7813,927.7949 Q330.1094,927.7949 330.3594,928.0605 Q330.625,928.3105 330.625,928.6543 Q330.625,928.998 330.2813,929.4043 Q329.7813,929.9824 328.9844,930.3105 Q327.9063,930.7637 326.6094,930.7637 Q325.0938,930.7637 323.8906,930.1387 Q322.9063,929.6387 322.2188,928.5762 Q321.5313,927.498 321.5313,926.2168 L321.5313,925.0605 Q321.5313,923.7324 322.1406,922.5918 Q322.7656,921.4355 323.8594,920.8262 Q324.9531,920.2012 326.1875,920.2012 Q326.9219,920.2012 327.5625,920.373 Q328.2188,920.5293 328.7656,920.8887 Z " fill="#000000"/><text fill="#000000" font-family="sans-serif" font-size="14" lengthAdjust="spacing" textLength="70" x="340" y="930.8105">Restaurant</text><line style="stroke:#181818;stroke-width:0.5;" x1="312" x2="412" y1="941.0137" y2="941.0137"/><line style="stroke:#181818;stroke-width:0.5;" x1="312" x2="412" y1="949.0137" y2="949.0137"/></g><!--class BaseModel--><g id="elem_BaseModel"><rect codeLine="65" fill="#F1F1F1" height="48" id="BaseModel" rx="2.5" ry="2.5" style="stroke:#181818;stroke-width:0.5;" width="102" x="533" y="43.0137"/><ellipse cx="548" cy="59.0137" fill="#ADD1B2" rx="11" ry="11" style="stroke:#181818;stroke-width:1.0;"/><path d="M550.7656,54.8887 Q550.9219,54.6699 551.1094,54.5605 Q551.2969,54.4512 551.5156,54.4512 Q551.8906,54.4512 552.125,54.7168 Q552.3594,54.9668 552.3594,55.5762 L552.3594,57.0293 Q552.3594,57.6387 552.125,57.9043 Q551.8906,58.1699 551.5156,58.1699 Q551.1719,58.1699 550.9688,57.9668 Q550.7656,57.7793 550.6563,57.2637 Q550.6094,56.9043 550.4219,56.7168 Q550.0938,56.3418 549.4844,56.123 Q548.875,55.9043 548.25,55.9043 Q547.4844,55.9043 546.8438,56.2324 Q546.2188,56.5605 545.7188,57.3105 Q545.2344,58.0605 545.2344,59.0918 L545.2344,60.1855 Q545.2344,61.4199 546.125,62.248 Q547.0156,63.0605 548.6094,63.0605 Q549.5469,63.0605 550.2031,62.8105 Q550.5938,62.6543 551.0156,62.2168 Q551.2813,61.9512 551.4219,61.873 Q551.5781,61.7949 551.7813,61.7949 Q552.1094,61.7949 552.3594,62.0605 Q552.625,62.3105 552.625,62.6543 Q552.625,62.998 552.2813,63.4043 Q551.7813,63.9824 550.9844,64.3105 Q549.9063,64.7637 548.6094,64.7637 Q547.0938,64.7637 545.8906,64.1387 Q544.9063,63.6387 544.2188,62.5762 Q543.5313,61.498 543.5313,60.2168 L543.5313,59.0605 Q543.5313,57.7324 544.1406,56.5918 Q544.7656,55.4355 545.8594,54.8262 Q546.9531,54.2012 548.1875,54.2012 Q548.9219,54.2012 549.5625,54.373 Q550.2188,54.5293 550.7656,54.8887 Z " fill="#000000"/><text fill="#000000" font-family="sans-serif" font-size="14" lengthAdjust="spacing" textLength="70" x="562" y="64.8105">BaseModel</text><line style="stroke:#181818;stroke-width:0.5;" x1="534" x2="634" y1="75.0137" y2="75.0137"/><line style="stroke:#181818;stroke-width:0.5;" x1="534" x2="634" y1="83.0137" y2="83.0137"/></g><!--class OwnerModel--><g id="elem_OwnerModel"><rect codeLine="69" fill="#F1F1F1" height="48" id="OwnerModel" rx="2.5" ry="2.5" style="stroke:#181818;stroke-width:0.5;" width="111" x="833.5" y="43.0137"/><ellipse cx="848.5" cy="59.0137" fill="#ADD1B2" rx="11" ry="11" style="stroke:#181818;stroke-width:1.0;"/><path d="M851.2656,54.8887 Q851.4219,54.6699 851.6094,54.5605 Q851.7969,54.4512 852.0156,54.4512 Q852.3906,54.4512 852.625,54.7168 Q852.8594,54.9668 852.8594,55.5762 L852.8594,57.0293 Q852.8594,57.6387 852.625,57.9043 Q852.3906,58.1699 852.0156,58.1699 Q851.6719,58.1699 851.4688,57.9668 Q851.2656,57.7793 851.1563,57.2637 Q851.1094,56.9043 850.9219,56.7168 Q850.5938,56.3418 849.9844,56.123 Q849.375,55.9043 848.75,55.9043 Q847.9844,55.9043 847.3438,56.2324 Q846.7188,56.5605 846.2188,57.3105 Q845.7344,58.0605 845.7344,59.0918 L845.7344,60.1855 Q845.7344,61.4199 846.625,62.248 Q847.5156,63.0605 849.1094,63.0605 Q850.0469,63.0605 850.7031,62.8105 Q851.0938,62.6543 851.5156,62.2168 Q851.7813,61.9512 851.9219,61.873 Q852.0781,61.7949 852.2813,61.7949 Q852.6094,61.7949 852.8594,62.0605 Q853.125,62.3105 853.125,62.6543 Q853.125,62.998 852.7813,63.4043 Q852.2813,63.9824 851.4844,64.3105 Q850.4063,64.7637 849.1094,64.7637 Q847.5938,64.7637 846.3906,64.1387 Q845.4063,63.6387 844.7188,62.5762 Q844.0313,61.498 844.0313,60.2168 L844.0313,59.0605 Q844.0313,57.7324 844.6406,56.5918 Q845.2656,55.4355 846.3594,54.8262 Q847.4531,54.2012 848.6875,54.2012 Q849.4219,54.2012 850.0625,54.373 Q850.7188,54.5293 851.2656,54.8887 Z " fill="#000000"/><text fill="#000000" font-family="sans-serif" font-size="14" lengthAdjust="spacing" textLength="79" x="862.5" y="64.8105">OwnerModel</text><line style="stroke:#181818;stroke-width:0.5;" x1="834.5" x2="943.5" y1="75.0137" y2="75.0137"/><line style="stroke:#181818;stroke-width:0.5;" x1="834.5" x2="943.5" y1="83.0137" y2="83.0137"/></g><!--link OwnerNew to OwnerPut--><g id="link_OwnerNew_OwnerPut"><path codeLine="37" d="M844.17,365.0137 C878.19,365.0137 916.68,365.0137 949.21,365.0137 " fill="none" id="OwnerNew-to-OwnerPut" style="stroke:#181818;stroke-width:1.0;stroke-dasharray:7.0,7.0;"/><polygon fill="#181818" points="954.38,365.0137,945.38,361.0137,949.38,365.0137,945.38,369.0137,954.38,365.0137" style="stroke:#181818;stroke-width:1.0;"/><text fill="#000000" font-family="sans-serif" font-size="13" lengthAdjust="spacing" textLength="74" x="862.25" y="358.042">&#171;instantiate&#187;</text></g><!--reverse link Owner to owners--><g id="link_Owner_owners"><path codeLine="52" d="M281.94,449.8637 C291.92,473.8137 302.98,500.3637 313.61,525.8837 " fill="none" id="Owner-backto-owners" style="stroke:#181818;stroke-width:1.0;stroke-dasharray:7.0,7.0;"/><polygon fill="#181818" points="279.95,445.1037,279.73,454.9501,281.8781,449.7169,287.1113,451.865,279.95,445.1037" style="stroke:#181818;stroke-width:1.0;"/><text fill="#000000" font-family="sans-serif" font-size="13" lengthAdjust="spacing" textLength="74" x="303" y="492.042">&#171;instantiate&#187;</text></g><!--link owners to Restaurant--><g id="link_owners_Restaurant"><path codeLine="61" d="M362,760.3237 C362,812.7837 362,870.3337 362,903.7037 " fill="none" id="owners-to-Restaurant" style="stroke:#181818;stroke-width:1.0;stroke-dasharray:7.0,7.0;"/><polygon fill="#181818" points="362,908.8437,366,899.8437,362,903.8437,358,899.8437,362,908.8437" style="stroke:#181818;stroke-width:1.0;"/><text fill="#000000" font-family="sans-serif" font-size="13" lengthAdjust="spacing" textLength="74" x="363" y="807.042">&#171;instantiate&#187;</text></g><!--link BaseModel to Owner--><g id="link_BaseModel_Owner"><path codeLine="74" d="M535.95,91.0137 C507.27,105.8637 470.94,126.7137 442,150.0137 C398.53,185.0037 356.1,229.8837 321.97,269.5037 " fill="none" id="BaseModel-to-Owner" style="stroke:#181818;stroke-width:1.0;"/><polygon fill="none" points="327.12,274.2637,308.83,284.9737,316.45,265.1937,327.12,274.2637" style="stroke:#181818;stroke-width:1.0;"/></g><!--link BaseModel to OwnerNew--><g id="link_BaseModel_OwnerNew"><path codeLine="75" d="M604.78,91.0237 C618.56,106.9137 636.51,128.9237 650,150.0137 C673.41,186.6337 695.42,229.1337 713.25,266.5737 " fill="none" id="BaseModel-to-OwnerNew" style="stroke:#181818;stroke-width:1.0;"/><polygon fill="none" points="719.63,263.7037,721.79,284.7837,706.96,269.6437,719.63,263.7037" style="stroke:#181818;stroke-width:1.0;"/></g><!--link BaseModel to OwnerPut--><g id="link_BaseModel_OwnerPut"><path codeLine="76" d="M635.23,81.2537 C710.25,100.9237 843.16,136.9537 862,150.0137 C905.74,180.3437 942.55,226.3437 969.89,267.9237 " fill="none" id="BaseModel-to-OwnerPut" style="stroke:#181818;stroke-width:1.0;"/><polygon fill="none" points="975.81,264.1837,980.64,284.8137,964,271.7037,975.81,264.1837" style="stroke:#181818;stroke-width:1.0;"/></g><!--link BaseModel to OwnerQuery--><g id="link_BaseModel_OwnerQuery"><path codeLine="77" d="M581.02,91.2437 C575.76,132.1937 564.61,219.0237 556.3,283.7837 " fill="none" id="BaseModel-to-OwnerQuery" style="stroke:#181818;stroke-width:1.0;"/><polygon fill="none" points="563.2,285.0037,553.71,303.9437,549.32,283.2137,563.2,285.0037" style="stroke:#181818;stroke-width:1.0;"/></g><!--reverse link OwnerModel to OwnerPut--><g id="link_OwnerModel_OwnerPut"><path codeLine="79" d="M922.06,94.6037 C930.8,102.9437 939.58,112.6937 946,123.0137 C976.85,172.6237 996.42,235.7337 1008.12,284.9337 " fill="none" id="OwnerModel-backto-OwnerPut" style="stroke:#181818;stroke-width:1.0;stroke-dasharray:7.0,7.0;"/><polygon fill="#181818" points="918.32,91.1137,922.169,100.1793,921.9748,94.5258,927.6283,94.3316,918.32,91.1137" style="stroke:#181818;stroke-width:1.0;"/><text fill="#000000" font-family="sans-serif" font-size="13" lengthAdjust="spacing" textLength="74" x="957" y="138.042">&#171;instantiate&#187;</text></g><!--reverse link OwnerModel to OwnerNew--><g id="link_OwnerModel_OwnerNew"><path codeLine="80" d="M876.42,96.0137 C857.17,138.8637 819.67,222.3137 791.61,284.7637 " fill="none" id="OwnerModel-backto-OwnerNew" style="stroke:#181818;stroke-width:1.0;stroke-dasharray:7.0,7.0;"/><polygon fill="#181818" points="878.56,91.2437,871.2285,97.82,876.5147,95.8062,878.5285,101.0925,878.56,91.2437" style="stroke:#181818;stroke-width:1.0;"/><text fill="#000000" font-family="sans-serif" font-size="13" lengthAdjust="spacing" textLength="74" x="864" y="138.042">&#171;instantiate&#187;</text></g><!--SRC=[rLPDRniX4BtpAxWrbkBr7KK-zDmcQQMU8ikYkyH1sMKfiBAYDl-zVEq2Ni0vjbpCpZoOzsO6yASNfRX4kntlCLFJq3VjEEpQ7akvxIW-2Jm0m77xYay4OaxXRm3rc2tZcH4X8PP-zdNiffvuq0gelQINaTSC6mi-6FyzELyupNYcGgeZmmD1K2gnyklrDJSPCEtpBluoChtgWIiwCjm_QSnX1MhDzcey3eRypQRevvEwiIgFj4EGCfL2tqkYCuhz1lzO9gpGPp4EFXLEh9qZ9yNMTmFlxgJ2YhRx_SSoy3Yf_oO9rNOeAlms4V5sfRNhOIDLTQ3Lzo7aLRbEJc9QZcaZcdse7j8rfqnNdIcA5OaA7rBYqk4lZ3GL9wAEpk6RwfV95ufoju7RFVn2fNgojaD-UNh-e5rayMbT1D4Svu2CdFqKHG6qn4CrPhn96lOMBbkY9Ly5AXFl8YhknpINiyU4T9RhXEAjBWcvpsZV7qoNVDdu5gQQrpnrgvF0iyeZXbxSXzLo2ABRPnAwWsGkdv7Rf-NxOacB5Uo7UfpBCC5J2erW4jJ639PCpoyJt_RDD9-Qmf69ZjpySaRApJiRFejlRG8fFRX5tX65cNKJoymmVmz_4VXRP-ojZ-bYVSQIM2enilkPOC83Oa00B6lWjjl-cHidQzMbo3jqR-STzau1OBc_GbqST2qnN7nNeG3y1G00]--></g></svg>