<?xml version="1.0" encoding="us-ascii" standalone="no"?><svg xmlns="http://www.w3.org/2000/svg" xmlns:xlink="http://www.w3.org/1999/xlink" contentStyleType="text/css" height="516px" preserveAspectRatio="none" style="width:1774px;height:516px;background:#FFFFFF;" version="1.1" viewBox="0 0 1774 516" width="1774px" zoomAndPan="magnify"><defs/><g><!--cluster api--><g id="cluster_api"><path d="M8.5,6.0137 L30.5,6.0137 A3.75,3.75 0 0 1 33,8.5137 L40,30.6348 L1179.5,30.6348 A2.5,2.5 0 0 1 1182,33.1348 L1182,506.5137 A2.5,2.5 0 0 1 1179.5,509.0137 L8.5,509.0137 A2.5,2.5 0 0 1 6,506.5137 L6,8.5137 A2.5,2.5 0 0 1 8.5,6.0137 " fill="none" style="stroke:#000000;stroke-width:1.5;"/><line style="stroke:#000000;stroke-width:1.5;" x1="6" x2="40" y1="30.6348" y2="30.6348"/><text fill="#000000" font-family="sans-serif" font-size="14" font-weight="bold" lengthAdjust="spacing" textLength="21" x="10" y="23.1211">api</text></g><!--cluster ownerModule--><g id="cluster_ownerModule"><path d="M48.5,124.0137 L101.5,124.0137 A3.75,3.75 0 0 1 104,126.5137 L111,148.6348 L223.5,148.6348 A2.5,2.5 0 0 1 226,151.1348 L226,357.5137 A2.5,2.5 0 0 1 223.5,360.0137 L48.5,360.0137 A2.5,2.5 0 0 1 46,357.5137 L46,126.5137 A2.5,2.5 0 0 1 48.5,124.0137 " fill="none" style="stroke:#000000;stroke-width:1.5;"/><line style="stroke:#000000;stroke-width:1.5;" x1="46" x2="111" y1="148.6348" y2="148.6348"/><text fill="#000000" font-family="sans-serif" font-size="14" font-weight="bold" lengthAdjust="spacing" textLength="52" x="50" y="141.1211">owners</text></g><!--cluster reservationModule--><g id="cluster_reservationModule"><path d="M268.5,124.0137 L359.5,124.0137 A3.75,3.75 0 0 1 362,126.5137 L369,148.6348 L475.5,148.6348 A2.5,2.5 0 0 1 478,151.1348 L478,357.5137 A2.5,2.5 0 0 1 475.5,360.0137 L268.5,360.0137 A2.5,2.5 0 0 1 266,357.5137 L266,126.5137 A2.5,2.5 0 0 1 268.5,124.0137 " fill="none" style="stroke:#000000;stroke-width:1.5;"/><line style="stroke:#000000;stroke-width:1.5;" x1="266" x2="369" y1="148.6348" y2="148.6348"/><text fill="#000000" font-family="sans-serif" font-size="14" font-weight="bold" lengthAdjust="spacing" textLength="90" x="270" y="141.1211">reservations</text></g><!--cluster restaurantModule--><g id="cluster_restaurantModule"><path d="M737.5,124.0137 L819.5,124.0137 A3.75,3.75 0 0 1 822,126.5137 L829,148.6348 L1131.5,148.6348 A2.5,2.5 0 0 1 1134,151.1348 L1134,466.5137 A2.5,2.5 0 0 1 1131.5,469.0137 L737.5,469.0137 A2.5,2.5 0 0 1 735,466.5137 L735,126.5137 A2.5,2.5 0 0 1 737.5,124.0137 " fill="none" style="stroke:#000000;stroke-width:1.5;"/><line style="stroke:#000000;stroke-width:1.5;" x1="735" x2="829" y1="148.6348" y2="148.6348"/><text fill="#000000" font-family="sans-serif" font-size="14" font-weight="bold" lengthAdjust="spacing" textLength="81" x="739" y="141.1211">restaurants</text></g><!--cluster tableModule--><g id="cluster_tableModule"><path d="M525.5,124.0137 L569.5,124.0137 A3.75,3.75 0 0 1 572,126.5137 L579,148.6348 L692.5,148.6348 A2.5,2.5 0 0 1 695,151.1348 L695,357.5137 A2.5,2.5 0 0 1 692.5,360.0137 L525.5,360.0137 A2.5,2.5 0 0 1 523,357.5137 L523,126.5137 A2.5,2.5 0 0 1 525.5,124.0137 " fill="none" style="stroke:#000000;stroke-width:1.5;"/><line style="stroke:#000000;stroke-width:1.5;" x1="523" x2="579" y1="148.6348" y2="148.6348"/><text fill="#000000" font-family="sans-serif" font-size="14" font-weight="bold" lengthAdjust="spacing" textLength="43" x="527" y="141.1211">tables</text></g><!--cluster db--><g id="cluster_db"><path d="M1485.5,242.0137 L1504.5,242.0137 A3.75,3.75 0 0 1 1507,244.5137 L1514,266.6348 L1764.5,266.6348 A2.5,2.5 0 0 1 1767,269.1348 L1767,357.5137 A2.5,2.5 0 0 1 1764.5,360.0137 L1485.5,360.0137 A2.5,2.5 0 0 1 1483,357.5137 L1483,244.5137 A2.5,2.5 0 0 1 1485.5,242.0137 " fill="none" style="stroke:#000000;stroke-width:1.5;"/><line style="stroke:#000000;stroke-width:1.5;" x1="1483" x2="1514" y1="266.6348" y2="266.6348"/><text fill="#000000" font-family="sans-serif" font-size="14" font-weight="bold" lengthAdjust="spacing" textLength="18" x="1487" y="259.1211">db</text></g><!--entity main--><g id="elem_main"><rect fill="#F1F1F1" height="48.6211" rx="2.5" ry="2.5" style="stroke:#181818;stroke-width:0.5;" width="70" x="465" y="51.0137"/><rect fill="#F1F1F1" height="10" style="stroke:#181818;stroke-width:0.5;" width="15" x="515" y="56.0137"/><rect fill="#F1F1F1" height="2" style="stroke:#181818;stroke-width:0.5;" width="4" x="513" y="58.0137"/><rect fill="#F1F1F1" height="2" style="stroke:#181818;stroke-width:0.5;" width="4" x="513" y="62.0137"/><text fill="#000000" font-family="sans-serif" font-size="14" lengthAdjust="spacing" textLength="30" x="480" y="86.1211">main</text></g><!--entity util--><g id="elem_util"><rect fill="#F1F1F1" height="48.6211" rx="2.5" ry="2.5" style="stroke:#181818;stroke-width:0.5;" width="58" x="471" y="396.0137"/><rect fill="#F1F1F1" height="10" style="stroke:#181818;stroke-width:0.5;" width="15" x="509" y="401.0137"/><rect fill="#F1F1F1" height="2" style="stroke:#181818;stroke-width:0.5;" width="4" x="507" y="403.0137"/><rect fill="#F1F1F1" height="2" style="stroke:#181818;stroke-width:0.5;" width="4" x="507" y="407.0137"/><text fill="#000000" font-family="sans-serif" font-size="14" lengthAdjust="spacing" textLength="18" x="486" y="431.1211">util</text></g><!--entity ownerModels--><g id="elem_ownerModels"><rect fill="#F1F1F1" height="48.6211" rx="2.5" ry="2.5" style="stroke:#181818;stroke-width:0.5;" width="123" x="70.5" y="287.0137"/><rect fill="#F1F1F1" height="10" style="stroke:#181818;stroke-width:0.5;" width="15" x="173.5" y="292.0137"/><rect fill="#F1F1F1" height="2" style="stroke:#181818;stroke-width:0.5;" width="4" x="171.5" y="294.0137"/><rect fill="#F1F1F1" height="2" style="stroke:#181818;stroke-width:0.5;" width="4" x="171.5" y="298.0137"/><text fill="#000000" font-family="sans-serif" font-size="14" lengthAdjust="spacing" textLength="83" x="85.5" y="322.1211">ownerModels</text></g><!--entity owners--><g id="elem_owners"><rect fill="#F1F1F1" height="48.6211" rx="2.5" ry="2.5" style="stroke:#181818;stroke-width:0.5;" width="85" x="89.5" y="169.0137"/><rect fill="#F1F1F1" height="10" style="stroke:#181818;stroke-width:0.5;" width="15" x="154.5" y="174.0137"/><rect fill="#F1F1F1" height="2" style="stroke:#181818;stroke-width:0.5;" width="4" x="152.5" y="176.0137"/><rect fill="#F1F1F1" height="2" style="stroke:#181818;stroke-width:0.5;" width="4" x="152.5" y="180.0137"/><text fill="#000000" font-family="sans-serif" font-size="14" lengthAdjust="spacing" textLength="45" x="104.5" y="204.1211">owners</text></g><!--entity reservationModels--><g id="elem_reservationModels"><rect fill="#F1F1F1" height="48.6211" rx="2.5" ry="2.5" style="stroke:#181818;stroke-width:0.5;" width="156" x="290" y="287.0137"/><rect fill="#F1F1F1" height="10" style="stroke:#181818;stroke-width:0.5;" width="15" x="426" y="292.0137"/><rect fill="#F1F1F1" height="2" style="stroke:#181818;stroke-width:0.5;" width="4" x="424" y="294.0137"/><rect fill="#F1F1F1" height="2" style="stroke:#181818;stroke-width:0.5;" width="4" x="424" y="298.0137"/><text fill="#000000" font-family="sans-serif" font-size="14" lengthAdjust="spacing" textLength="116" x="305" y="322.1211">reservationModels</text></g><!--entity reservations--><g id="elem_reservations"><rect fill="#F1F1F1" height="48.6211" rx="2.5" ry="2.5" style="stroke:#181818;stroke-width:0.5;" width="118" x="309" y="169.0137"/><rect fill="#F1F1F1" height="10" style="stroke:#181818;stroke-width:0.5;" width="15" x="407" y="174.0137"/><rect fill="#F1F1F1" height="2" style="stroke:#181818;stroke-width:0.5;" width="4" x="405" y="176.0137"/><rect fill="#F1F1F1" height="2" style="stroke:#181818;stroke-width:0.5;" width="4" x="405" y="180.0137"/><text fill="#000000" font-family="sans-serif" font-size="14" lengthAdjust="spacing" textLength="78" x="324" y="204.1211">reservations</text></g><!--entity addressModels--><g id="elem_addressModels"><rect fill="#F1F1F1" height="48.6211" rx="2.5" ry="2.5" style="stroke:#181818;stroke-width:0.5;" width="136" x="767" y="396.0137"/><rect fill="#F1F1F1" height="10" style="stroke:#181818;stroke-width:0.5;" width="15" x="883" y="401.0137"/><rect fill="#F1F1F1" height="2" style="stroke:#181818;stroke-width:0.5;" width="4" x="881" y="403.0137"/><rect fill="#F1F1F1" height="2" style="stroke:#181818;stroke-width:0.5;" width="4" x="881" y="407.0137"/><text fill="#000000" font-family="sans-serif" font-size="14" lengthAdjust="spacing" textLength="96" x="782" y="431.1211">addressModels</text></g><!--entity businessHourModels--><g id="elem_businessHourModels"><rect fill="#F1F1F1" height="48.6211" rx="2.5" ry="2.5" style="stroke:#181818;stroke-width:0.5;" width="171" x="938.5" y="396.0137"/><rect fill="#F1F1F1" height="10" style="stroke:#181818;stroke-width:0.5;" width="15" x="1089.5" y="401.0137"/><rect fill="#F1F1F1" height="2" style="stroke:#181818;stroke-width:0.5;" width="4" x="1087.5" y="403.0137"/><rect fill="#F1F1F1" height="2" style="stroke:#181818;stroke-width:0.5;" width="4" x="1087.5" y="407.0137"/><text fill="#000000" font-family="sans-serif" font-size="14" lengthAdjust="spacing" textLength="131" x="953.5" y="431.1211">businessHourModels</text></g><!--entity restaurantModels--><g id="elem_restaurantModels"><rect fill="#F1F1F1" height="48.6211" rx="2.5" ry="2.5" style="stroke:#181818;stroke-width:0.5;" width="150" x="858" y="287.0137"/><rect fill="#F1F1F1" height="10" style="stroke:#181818;stroke-width:0.5;" width="15" x="988" y="292.0137"/><rect fill="#F1F1F1" height="2" style="stroke:#181818;stroke-width:0.5;" width="4" x="986" y="294.0137"/><rect fill="#F1F1F1" height="2" style="stroke:#181818;stroke-width:0.5;" width="4" x="986" y="298.0137"/><text fill="#000000" font-family="sans-serif" font-size="14" lengthAdjust="spacing" textLength="110" x="873" y="322.1211">restaurantModels</text></g><!--entity restaurants--><g id="elem_restaurants"><rect fill="#F1F1F1" height="48.6211" rx="2.5" ry="2.5" style="stroke:#181818;stroke-width:0.5;" width="112" x="877" y="169.0137"/><rect fill="#F1F1F1" height="10" style="stroke:#181818;stroke-width:0.5;" width="15" x="969" y="174.0137"/><rect fill="#F1F1F1" height="2" style="stroke:#181818;stroke-width:0.5;" width="4" x="967" y="176.0137"/><rect fill="#F1F1F1" height="2" style="stroke:#181818;stroke-width:0.5;" width="4" x="967" y="180.0137"/><text fill="#000000" font-family="sans-serif" font-size="14" lengthAdjust="spacing" textLength="72" x="892" y="204.1211">restaurants</text></g><!--entity tableModels--><g id="elem_tableModels"><rect fill="#F1F1F1" height="48.6211" rx="2.5" ry="2.5" style="stroke:#181818;stroke-width:0.5;" width="116" x="555" y="287.0137"/><rect fill="#F1F1F1" height="10" style="stroke:#181818;stroke-width:0.5;" width="15" x="651" y="292.0137"/><rect fill="#F1F1F1" height="2" style="stroke:#181818;stroke-width:0.5;" width="4" x="649" y="294.0137"/><rect fill="#F1F1F1" height="2" style="stroke:#181818;stroke-width:0.5;" width="4" x="649" y="298.0137"/><text fill="#000000" font-family="sans-serif" font-size="14" lengthAdjust="spacing" textLength="76" x="570" y="322.1211">tableModels</text></g><!--entity tables--><g id="elem_tables"><rect fill="#F1F1F1" height="48.6211" rx="2.5" ry="2.5" style="stroke:#181818;stroke-width:0.5;" width="78" x="574" y="169.0137"/><rect fill="#F1F1F1" height="10" style="stroke:#181818;stroke-width:0.5;" width="15" x="632" y="174.0137"/><rect fill="#F1F1F1" height="2" style="stroke:#181818;stroke-width:0.5;" width="4" x="630" y="176.0137"/><rect fill="#F1F1F1" height="2" style="stroke:#181818;stroke-width:0.5;" width="4" x="630" y="180.0137"/><text fill="#000000" font-family="sans-serif" font-size="14" lengthAdjust="spacing" textLength="38" x="589" y="204.1211">tables</text></g><!--entity manager--><g id="elem_manager"><rect fill="#F1F1F1" height="48.6211" rx="2.5" ry="2.5" style="stroke:#181818;stroke-width:0.5;" width="96" x="1647" y="287.0137"/><rect fill="#F1F1F1" height="10" style="stroke:#181818;stroke-width:0.5;" width="15" x="1723" y="292.0137"/><rect fill="#F1F1F1" height="2" style="stroke:#181818;stroke-width:0.5;" width="4" x="1721" y="294.0137"/><rect fill="#F1F1F1" height="2" style="stroke:#181818;stroke-width:0.5;" width="4" x="1721" y="298.0137"/><text fill="#000000" font-family="sans-serif" font-size="14" lengthAdjust="spacing" textLength="56" x="1662" y="322.1211">manager</text></g><!--entity models--><g id="elem_models"><rect fill="#F1F1F1" height="48.6211" rx="2.5" ry="2.5" style="stroke:#181818;stroke-width:0.5;" width="85" x="1526.5" y="287.0137"/><rect fill="#F1F1F1" height="10" style="stroke:#181818;stroke-width:0.5;" width="15" x="1591.5" y="292.0137"/><rect fill="#F1F1F1" height="2" style="stroke:#181818;stroke-width:0.5;" width="4" x="1589.5" y="294.0137"/><rect fill="#F1F1F1" height="2" style="stroke:#181818;stroke-width:0.5;" width="4" x="1589.5" y="298.0137"/><text fill="#000000" font-family="sans-serif" font-size="14" lengthAdjust="spacing" textLength="45" x="1541.5" y="322.1211">models</text></g><!--entity sqlalchemy--><g id="elem_sqlalchemy"><rect fill="#F1F1F1" height="48.6211" rx="2.5" ry="2.5" style="stroke:#181818;stroke-width:0.5;" width="110" x="1321" y="396.0137"/><rect fill="#F1F1F1" height="10" style="stroke:#181818;stroke-width:0.5;" width="15" x="1411" y="401.0137"/><rect fill="#F1F1F1" height="2" style="stroke:#181818;stroke-width:0.5;" width="4" x="1409" y="403.0137"/><rect fill="#F1F1F1" height="2" style="stroke:#181818;stroke-width:0.5;" width="4" x="1409" y="407.0137"/><text fill="#000000" font-family="sans-serif" font-size="14" lengthAdjust="spacing" textLength="70" x="1336" y="431.1211">sqlalchemy</text></g><!--entity fastapi--><g id="elem_fastapi"><rect fill="#F1F1F1" height="48.6211" rx="2.5" ry="2.5" style="stroke:#181818;stroke-width:0.5;" width="82" x="1245" y="287.0137"/><rect fill="#F1F1F1" height="10" style="stroke:#181818;stroke-width:0.5;" width="15" x="1307" y="292.0137"/><rect fill="#F1F1F1" height="2" style="stroke:#181818;stroke-width:0.5;" width="4" x="1305" y="294.0137"/><rect fill="#F1F1F1" height="2" style="stroke:#181818;stroke-width:0.5;" width="4" x="1305" y="298.0137"/><text fill="#000000" font-family="sans-serif" font-size="14" lengthAdjust="spacing" textLength="42" x="1260" y="322.1211">fastapi</text></g><!--entity pydantic--><g id="elem_pydantic"><rect fill="#F1F1F1" height="48.6211" rx="2.5" ry="2.5" style="stroke:#181818;stroke-width:0.5;" width="93" x="1362.5" y="287.0137"/><rect fill="#F1F1F1" height="10" style="stroke:#181818;stroke-width:0.5;" width="15" x="1435.5" y="292.0137"/><rect fill="#F1F1F1" height="2" style="stroke:#181818;stroke-width:0.5;" width="4" x="1433.5" y="294.0137"/><rect fill="#F1F1F1" height="2" style="stroke:#181818;stroke-width:0.5;" width="4" x="1433.5" y="298.0137"/><text fill="#000000" font-family="sans-serif" font-size="14" lengthAdjust="spacing" textLength="53" x="1377.5" y="322.1211">pydantic</text></g><!--link api to db--><g id="link_api_db"><path d="M1182.2573,76.5376 C1182.3745,76.5394 1182.4928,76.5412 1182.6122,76.5431 C1182.851,76.5469 1183.0944,76.551 1183.3422,76.5554 C1183.8378,76.5641 1184.3511,76.5741 1184.8817,76.5853 C1187.0042,76.6304 1189.4033,76.6964 1192.0486,76.7921 C1202.6297,77.1749 1217.1494,78.0324 1233.6587,79.9187 C1266.6775,83.6912 1307.655,91.5787 1341,108.0137 C1411.58,142.8037 1433.52,157.9437 1473,226.0137 C1475.3325,230.0362 1477.3641,234.3235 1479.1334,238.7526 C1480.018,240.9671 1480.8371,243.2171 1481.5954,245.4871 C1481.9746,246.6221 1482.3386,247.7621 1482.688,248.9052 C1482.7754,249.1909 1482.8618,249.4769 1482.9474,249.763 " fill="none" id="api-to-db" style="stroke:#181818;stroke-width:1.0;"/><polygon fill="#181818" points="1482.9474,249.763,1484.2019,239.9944,1481.5152,244.9725,1476.5371,242.2859,1482.9474,249.763" style="stroke:#181818;stroke-width:1.0;"/></g><!--link api to sqlalchemy--><g id="link_api_sqlalchemy"><path d="M1182.4159,292.817 C1182.5678,293.3184 1182.721,293.8192 1182.8755,294.3197 C1183.4936,296.3215 1184.1329,298.3163 1184.7939,300.303 C1186.1159,304.2763 1187.525,308.2173 1189.0259,312.1172 C1192.0278,319.917 1195.3972,327.5526 1199.1723,334.9548 C1206.7227,349.7591 1215.8963,363.6299 1227,376.0137 C1249.28,400.8637 1284.87,411.8437 1315.68,416.5737 " fill="none" id="api-to-sqlalchemy" style="stroke:#181818;stroke-width:1.0;"/><polygon fill="#181818" points="1320.97,417.3237,1312.6177,412.1046,1316.0191,416.6246,1311.4991,420.026,1320.97,417.3237" style="stroke:#181818;stroke-width:1.0;"/></g><!--link api to fastapi--><g id="link_api_fastapi"><path d="M1182.0926,80.3158 C1182.1482,80.3441 1182.204,80.3726 1182.26,80.4013 C1183.1566,80.8594 1184.1067,81.356 1185.1006,81.89 C1187.0883,82.958 1189.2506,84.1755 1191.5075,85.5337 C1200.535,90.9662 1211.075,98.6487 1218,108.0137 C1257.65,161.6337 1275.15,239.8337 1282.05,281.6237 " fill="none" id="api-to-fastapi" style="stroke:#181818;stroke-width:1.0;"/><polygon fill="#181818" points="1282.88,286.7837,1285.4132,277.2662,1282.0928,281.846,1277.513,278.5256,1282.88,286.7837" style="stroke:#181818;stroke-width:1.0;"/></g><!--link api to pydantic--><g id="link_api_pydantic"><path d="M1182.2156,77.4593 C1182.3028,77.4711 1182.3907,77.4831 1182.4791,77.4952 C1183.1867,77.5917 1183.9324,77.6966 1184.7136,77.8102 C1190.9634,78.7193 1199.4919,80.1899 1209.0588,82.4762 C1228.1925,87.0487 1251.48,94.8837 1269,108.0137 C1331.7,154.9937 1376.39,238.5337 1396.72,282.1737 " fill="none" id="api-to-pydantic" style="stroke:#181818;stroke-width:1.0;"/><polygon fill="#181818" points="1398.84,286.7837,1398.72,276.9355,1396.7538,282.2397,1391.4496,280.2735,1398.84,286.7837" style="stroke:#181818;stroke-width:1.0;"/></g><!--link db to sqlalchemy--><g id="link_db_sqlalchemy"><path d="M1482.9136,359.2767 C1482.8283,359.4862 1482.742,359.6953 1482.6549,359.904 C1482.3062,360.739 1481.9431,361.5682 1481.5649,362.39 C1480.8085,364.0335 1479.9918,365.6471 1479.11,367.2175 C1477.3464,370.3584 1475.3225,373.3262 1473,376.0137 C1463.08,387.4937 1449.53,396.0837 1435.7,402.4637 " fill="none" id="db-to-sqlalchemy" style="stroke:#181818;stroke-width:1.0;"/><polygon fill="#181818" points="1431,404.5437,1440.8488,404.5751,1435.5755,402.5276,1437.6231,397.2543,1431,404.5437" style="stroke:#181818;stroke-width:1.0;"/></g><!--link main to tableModule--><g id="link_main_tableModule"><path d="M506.35,100.2637 C510.74,116.7037 516.66,138.8612 521.5987,157.3399 C521.9074,158.4948 522.2123,159.6354 522.5127,160.7593 C522.6628,161.3212 522.8119,161.879 522.9598,162.4323 " fill="none" id="main-to-tableModule" style="stroke:#181818;stroke-width:1.0;"/><polygon fill="#181818" points="522.9598,162.4323,524.5002,152.7047,521.6687,157.6019,516.7715,154.7704,522.9598,162.4323" style="stroke:#181818;stroke-width:1.0;"/></g><!--link main to restaurantModule--><g id="link_main_restaurantModule"><path d="M535.37,98.7737 C536.58,99.2237 537.79,99.6437 539,100.0137 C570.48,109.6937 658.41,91.6537 687,108.0137 C706.245,119.0287 720.1125,139.6712 729.2338,157.7949 C730.3739,160.0604 731.4399,162.2865 732.433,164.4495 C732.9295,165.5311 733.4078,166.5968 733.868,167.6438 C734.0981,168.1673 734.3237,168.6861 734.5448,169.1999 C734.6554,169.4568 734.7648,169.7124 734.8731,169.9667 " fill="none" id="main-to-restaurantModule" style="stroke:#181818;stroke-width:1.0;"/><polygon fill="#181818" points="734.8731,169.9667,735.027,160.1191,732.9141,165.3665,727.6667,163.2535,734.8731,169.9667" style="stroke:#181818;stroke-width:1.0;"/></g><!--link main to reservationModule--><g id="link_main_reservationModule"><path d="M493.86,100.2637 C489.605,116.7037 483.875,138.8612 479.0963,157.3399 C478.7976,158.4948 478.5026,159.6354 478.212,160.7593 C478.1756,160.8998 478.1394,161.04 478.1032,161.18 " fill="none" id="main-to-reservationModule" style="stroke:#181818;stroke-width:1.0;"/><polygon fill="#181818" points="478.1032,161.18,484.2291,153.4681,479.355,156.3392,476.4839,151.4651,478.1032,161.18" style="stroke:#181818;stroke-width:1.0;"/></g><!--link main to ownerModule--><g id="link_main_ownerModule"><path d="M464.65,77.9337 C409.22,80.7337 305.01,88.4837 274,108.0137 C255.235,119.8287 241.375,140.4837 232.1375,158.4149 C229.8281,162.8977 227.8077,167.2103 226.0717,171.172 " fill="none" id="main-to-ownerModule" style="stroke:#181818;stroke-width:1.0;"/><polygon fill="#181818" points="226.0717,171.172,233.3475,164.5341,228.0784,166.5924,226.0202,161.3232,226.0717,171.172" style="stroke:#181818;stroke-width:1.0;"/></g><!--link tableModule to util--><g id="link_tableModule_util"><path d="M522.9713,252.7786 C522.9304,253.0752 522.8894,253.3725 522.8484,253.6704 C522.6842,254.8621 522.5186,256.0642 522.3516,257.2759 C521.6838,262.1229 520.9948,267.124 520.2913,272.2312 C514.6625,313.0887 508.1,360.7337 504,390.5137 " fill="none" id="tableModule-to-util" style="stroke:#181818;stroke-width:1.0;"/><polygon fill="#181818" points="503.28,395.7037,508.4755,387.3367,503.9651,390.7508,500.5509,386.2405,503.28,395.7037" style="stroke:#181818;stroke-width:1.0;"/></g><!--link restaurantModule to util--><g id="link_restaurantModule_util"><path d="M734.8783,280.8362 C734.8112,281.1421 734.7434,281.4482 734.6752,281.7546 C734.5387,282.3672 734.4,282.9807 734.2592,283.595 C733.9775,284.8235 733.687,286.0549 733.3875,287.2887 C732.7884,289.7563 732.1532,292.233 731.4797,294.7134 C728.7856,304.6351 725.4788,314.6152 721.4225,324.2993 C713.31,343.6674 702.2,361.8512 687,376.0137 C665.12,396.4037 582.02,409.5837 534.28,415.6437 " fill="none" id="restaurantModule-to-util" style="stroke:#181818;stroke-width:1.0;"/><polygon fill="#181818" points="529.21,416.2737,538.6326,419.1398,534.1723,415.6605,537.6515,411.2002,529.21,416.2737" style="stroke:#181818;stroke-width:1.0;"/></g><!--link reservationModule to util--><g id="link_reservationModule_util"><path d="M478.0047,254.5661 C478.0446,254.8653 478.0846,255.1652 478.1247,255.4656 C478.2048,256.0666 478.2853,256.6701 478.366,257.2759 C479.0123,262.1229 479.6791,267.124 480.36,272.2312 C485.8075,313.0887 492.16,360.7337 496.13,390.5137 " fill="none" id="reservationModule-to-util" style="stroke:#181818;stroke-width:1.0;"/><polygon fill="#181818" points="496.83,395.7037,499.6126,386.2561,496.1729,390.747,491.682,387.3074,496.83,395.7037" style="stroke:#181818;stroke-width:1.0;"/></g><!--link ownerModule to util--><g id="link_ownerModule_util"><path d="M226.0638,283.1805 C226.1325,283.488 226.2018,283.7956 226.2716,284.1034 C226.5509,285.3346 226.8392,286.5685 227.1367,287.8045 C227.7318,290.2766 228.3639,292.7569 229.0352,295.2399 C231.7203,305.1718 235.0331,315.1461 239.1162,324.8013 C247.2825,344.1118 258.53,362.1462 274,376.0137 C301.81,400.9437 409.55,412.6637 465.63,417.1737 " fill="none" id="ownerModule-to-util" style="stroke:#181818;stroke-width:1.0;"/><polygon fill="#181818" points="470.89,417.5837,462.2253,412.9014,465.9049,417.198,461.6083,420.8776,470.89,417.5837" style="stroke:#181818;stroke-width:1.0;"/></g><!--link tables to tableModels--><g id="link_tables_tableModels"><path d="M613,218.2637 C613,236.5637 613,261.9437 613,281.4537 " fill="none" id="tables-to-tableModels" style="stroke:#181818;stroke-width:1.0;"/><polygon fill="#181818" points="613,286.7937,617,277.7937,613,281.7937,609,277.7937,613,286.7937" style="stroke:#181818;stroke-width:1.0;"/></g><!--link restaurants to restaurantModels--><g id="link_restaurants_restaurantModels"><path d="M933,218.2637 C933,236.5637 933,261.9437 933,281.4537 " fill="none" id="restaurants-to-restaurantModels" style="stroke:#181818;stroke-width:1.0;"/><polygon fill="#181818" points="933,286.7937,937,277.7937,933,281.7937,929,277.7937,933,286.7937" style="stroke:#181818;stroke-width:1.0;"/></g><!--link restaurantModels to businessHourModels--><g id="link_restaurantModels_businessHourModels"><path d="M953.2,336.2637 C967.22,352.7437 985.94,374.7537 1000.61,392.0037 " fill="none" id="restaurantModels-to-businessHourModels" style="stroke:#181818;stroke-width:1.0;"/><polygon fill="#181818" points="1003.86,395.8337,1001.081,386.385,1000.6226,392.0233,994.9843,391.5649,1003.86,395.8337" style="stroke:#181818;stroke-width:1.0;"/></g><!--link restaurantModels to addressModels--><g id="link_restaurantModels_addressModels"><path d="M911.25,336.2637 C896.15,352.7437 875.99,374.7537 860.19,392.0037 " fill="none" id="restaurantModels-to-addressModels" style="stroke:#181818;stroke-width:1.0;"/><polygon fill="#181818" points="856.69,395.8337,865.716,391.8927,860.0647,392.1443,859.8131,386.4931,856.69,395.8337" style="stroke:#181818;stroke-width:1.0;"/></g><!--link reservations to reservationModels--><g id="link_reservations_reservationModels"><path d="M368,218.2637 C368,236.5637 368,261.9437 368,281.4537 " fill="none" id="reservations-to-reservationModels" style="stroke:#181818;stroke-width:1.0;"/><polygon fill="#181818" points="368,286.7937,372,277.7937,368,281.7937,364,277.7937,368,286.7937" style="stroke:#181818;stroke-width:1.0;"/></g><!--link owners to ownerModels--><g id="link_owners_ownerModels"><path d="M132,218.2637 C132,236.5637 132,261.9437 132,281.4537 " fill="none" id="owners-to-ownerModels" style="stroke:#181818;stroke-width:1.0;"/><polygon fill="#181818" points="132,286.7937,136,277.7937,132,281.7937,128,277.7937,132,286.7937" style="stroke:#181818;stroke-width:1.0;"/></g><!--SRC=[XLIxRiGW4EpvYksS5Cu7f8WKAKMQg_856FPi50oEmJavqVrxmDW2_CfLPdPsPtSPhlYGecwi7C68jfFYAf0_a-9Der651TFe6t3iK75KR8GAxGrHWJjtMYXhG5z1AoG5LHnQpL46o3RO-_CWqS03FjLFO6db3vxOey7-crgXrMNAUIJ5gpGQQbJOKob-736HjJgh248PYvHx9QOLwz4YC4cD8QIZx9FM2BGJy4l0_PXkEzUYij1IeLRGO8MSe2LFtrm7haiJlYv1C5JAKvUuQ_ye6WBtJ22PVPB9Tt4ajjdOEUT0sDAXf_xMWkvyF96bd3kUEPIi1YEK8xpheJ_hAohzHzdhV76E2Lyd_IxnVPLGPnQuHw_mQiSgoaNwDHegkzI8cIz99Mkm7HFmIjqydKYGRkHkEi48ySuiIrw-EDtaaDI9u58d8h6EwxhCyuWt-0GcUuhW-iQpIEx164fU0I7f-aiVdPxFnabPQ6Nk64lVLqJ9VDdf57xd9BNlPXhFM0CJQyUWkxpSw2HxfDiDJPpvdo9TaiF_0000]--></g></svg>